<svg xmlns="http://www.w3.org/2000/svg" viewBox="0 0 500 500"><g id="freepik--background-complete--inject-442"><path d="M268,29.38c44.95-.67,94.92-.65,139.9,0-45,.64-94.94.66-139.9,0Z" style="fill:#ebebeb"></path><path d="M252.15,48.33c46.32-.66,97.8-.65,144.14,0-46.35.65-97.81.67-144.14,0Z" style="fill:#ebebeb"></path><path d="M282.47,29.38a86.38,86.38,0,0,1,0,19,87.63,87.63,0,0,1,0-18.95Z" style="fill:#ebebeb"></path><path d="M353,29.38a87,87,0,0,1,0,19,87.63,87.63,0,0,1,0-18.95Z" style="fill:#ebebeb"></path><path d="M317.75,48.25a87.09,87.09,0,0,1,0,19,87.72,87.72,0,0,1,0-19Z" style="fill:#ebebeb"></path><path d="M351.83,470.62c-29.1.67-61.46.65-90.58,0,29.12-.64,61.47-.66,90.58,0Z" style="fill:#ebebeb"></path><path d="M417,451.67c-46.31.66-97.79.65-144.14,0,46.36-.65,97.82-.67,144.14,0Z" style="fill:#ebebeb"></path><path d="M386.66,470.62a87,87,0,0,1,0-18.95,87.63,87.63,0,0,1,0,18.95Z" style="fill:#ebebeb"></path><path d="M316.1,470.62a87.63,87.63,0,0,1,0-18.95,87,87,0,0,1,0,18.95Z" style="fill:#ebebeb"></path><path d="M351.38,451.75a87.72,87.72,0,0,1,0-19,87.72,87.72,0,0,1,0,19Z" style="fill:#ebebeb"></path><path d="M81.9,368.44c44.94-.67,94.91-.65,139.89,0-45,.65-94.94.66-139.89,0Z" style="fill:#ebebeb"></path><path d="M48.35,387.39c46.31-.66,97.8-.64,144.14,0-46.35.65-97.82.67-144.14,0Z" style="fill:#ebebeb"></path><path d="M343.63,349.61c28.83-.66,60.9-.65,89.75,0-28.86.65-60.91.67-89.75,0Z" style="fill:#ebebeb"></path><path d="M375.39,368.44c28.84-.67,60.9-.65,89.75,0-28.86.65-60.91.66-89.75,0Z" style="fill:#ebebeb"></path><path d="M118.06,368.44a87.63,87.63,0,0,1,0,18.95,87,87,0,0,1,0-18.95Z" style="fill:#ebebeb"></path><path d="M188.65,368.44a87.63,87.63,0,0,1,0,18.95,87,87,0,0,1,0-18.95Z" style="fill:#ebebeb"></path><path d="M386.68,368.44a87,87,0,0,1,0,18.95,87.63,87.63,0,0,1,0-18.95Z" style="fill:#ebebeb"></path><path d="M457.27,368.44a87.63,87.63,0,0,1,0,18.95,87.63,87.63,0,0,1,0-18.95Z" style="fill:#ebebeb"></path><path d="M82.75,387.39a87,87,0,0,1,0,18.88,86.36,86.36,0,0,1,0-18.88Z" style="fill:#ebebeb"></path><path d="M153.45,387.32a87.63,87.63,0,0,1,0,18.95,87.63,87.63,0,0,1,0-18.95Z" style="fill:#ebebeb"></path><path d="M422.3,349.09a87,87,0,0,1,0,19,87.63,87.63,0,0,1,0-19Z" style="fill:#ebebeb"></path><path d="M322.86,164.23c46.31-.66,97.79-.64,144.14,0-46.36.65-97.82.67-144.14,0Z" style="fill:#ebebeb"></path><path d="M372.76,183.19c31.12-.66,65.72-.65,96.87,0-31.15.65-65.74.66-96.87,0Z" style="fill:#ebebeb"></path><path d="M423.74,145.28a87.63,87.63,0,0,1,0,18.95,87,87,0,0,1,0-18.95Z" style="fill:#ebebeb"></path><path d="M388.46,164.23a87.72,87.72,0,0,1,0,19,87.09,87.09,0,0,1,0-19Z" style="fill:#ebebeb"></path><path d="M459,164.23a87.09,87.09,0,0,1,0,19,87.72,87.72,0,0,1,0-19Z" style="fill:#ebebeb"></path><path d="M301.09,289.81c19.93-.68,40-.68,60,0-19.94.67-40,.67-60,0Z" style="fill:#ebebeb"></path><path d="M287.06,308.76c31.12-.66,65.73-.65,96.87,0-31.15.65-65.74.67-96.87,0Z" style="fill:#ebebeb"></path><path d="M317.78,270.85a87.09,87.09,0,0,1,0,19,87.72,87.72,0,0,1,0-19Z" style="fill:#ebebeb"></path><path d="M353.06,289.81a87,87,0,0,1,0,18.95,87.63,87.63,0,0,1,0-18.95Z" style="fill:#ebebeb"></path><path d="M30.37,164.23c19.94-.67,40-.67,60,0-19.94.67-40,.67-60,0Z" style="fill:#ebebeb"></path><path d="M60.35,183.19c17.58-.67,35.29-.67,52.87,0-17.59.67-35.29.67-52.87,0Z" style="fill:#ebebeb"></path><path d="M47.07,145.28a87,87,0,0,1,0,18.95,87.63,87.63,0,0,1,0-18.95Z" style="fill:#ebebeb"></path><path d="M82.35,164.23a87.72,87.72,0,0,1,0,19,87.72,87.72,0,0,1,0-19Z" style="fill:#ebebeb"></path><path d="M360.7,309.15c5.22-12.57,8.31-26.22,8-39.86-.6-13.66-4.85-26.82-8.85-39.82-3.25-10.85-7.38-21.89-7.6-33.41.13-6.91,1.78-13.7,3.52-20.33,3.45-13.18,8.33-26.06,9.47-39.66a51,51,0,0,0-.95-13.36c-3.44-17.87-10.6-34.82-14.54-52.66A68.7,68.7,0,0,1,348,56.27c0-9.33,3.3-19.67,11.51-25,5.38-3.51,11.65-1,11.15,6.13-1.87,11-15.88,11.4-24.51,10-9.17-1.49-17.85-4.82-26.24-8.66a116,116,0,0,0-12.41-5.38c-41.31-14.2-53.59,23.86-105.35,15.51-9.26-1.11-17.59-5.5-26.19-8.34a58,58,0,0,0-13.12-2.35C144.57,36.53,127,41.77,110,48c-8.71,3-17.89,5.55-27.24,4.82C75,52.38,57,46.88,55.3,38.64c-1-4.41,3.44-8,7.47-7.75a10.42,10.42,0,0,1,6.94,2.92A19,19,0,0,1,75.17,47C74.88,58.83,65.05,67.88,58.73,77a63.88,63.88,0,0,0-6.92,11.52C44,106,54.88,123.81,61.13,140c3.36,8.46,6.26,17.37,6.41,26.64a65.6,65.6,0,0,1-5,26.88c-2.75,6.3-5.6,12.52-4.63,19.54.74,9.08,3,18,4.77,26.87a41.83,41.83,0,0,1,1,6.76,44.13,44.13,0,0,0-1-6.74c-1.46-6.68-3.17-13.3-4.3-20.06-.69-4.5-1.47-9.12-.86-13.67s2.76-8.78,4.4-13a60.6,60.6,0,0,0,3.7-13c4.68-25.77-8.57-42.06-15.94-65.11C42.58,92.69,52.71,81.73,65.31,64.9a47.17,47.17,0,0,0,6.55-11.59,17,17,0,0,0-3.72-17.8,8,8,0,0,0-5.38-2.26c-4.13,0-7,3.84-3.8,7.41,2.76,3.2,7.24,4.92,11.1,6.57a43.63,43.63,0,0,0,12.9,3c9,.68,17.74-1.87,26.21-4.75s17.22-6.15,26.27-8.05c13.53-2.79,27.9-3.44,41.3.41,4.5,1.33,8.68,3.29,12.88,4.83,12.49,4.55,26.55,5.27,39.7,3.43,29.56-5.15,46-27.2,79.05-15.31A118.36,118.36,0,0,1,321,36.28c8.15,3.75,16.66,7,25.51,8.5,7.29,1.17,19.81,1.36,21.52-7.6.21-1.82-.59-3.9-2-4.56-3.62-1.41-7.69,2.33-9.9,5.17-6.94,9.05-6.54,21.11-4.11,31.77,3.81,17.8,10.86,34.81,14.19,52.81a53.39,53.39,0,0,1,.89,13.84c-1.68,18.31-9.87,35.16-12.8,53.18-2.36,13.6,2.88,26.82,6.53,39.78,3.86,13.07,8,26.38,8.44,40.11.16,13.7-3.17,27.34-8.59,39.87Z" style="fill:#ebebeb"></path><path d="M361.86,295a270.27,270.27,0,0,1-2.9-38.11c.17-12.79,3.38-25.28,5.05-37.88a120.08,120.08,0,0,0,1.05-25.34c-1.43-16.93-7.49-33.19-8.52-50.23-1.86-17.1,3.11-33.91,5.4-50.63.92-8.22.92-17-3.35-24.36-3-5.57-8.33-9.71-11.28-15.44-3.16-6-1.87-14.23,4-18.2,4.35-3.22,10.56-1.31,10.35,4.83-.3,4.74-4.05,8.4-8.19,10.12-12.41,4.88-25.74-2.83-37.31-6.89-23.44-9.58-49.49-13.49-74.28-7.22-8.23,1.9-16.31,4.51-24.51,6.83a139.77,139.77,0,0,1-25.12,5.05,167.27,167.27,0,0,1-25.62,0,173,173,0,0,1-25.33-3.62c-8.26-1.77-16.47-4-24.94-3.61s-16.59,2.51-24.54,5.34c-9.45,3-21.67,10-31.22,4.45-8.22-5.74-1.33-15.17,7.18-9.86A14.39,14.39,0,0,1,74,51.5c.31,4.42-1.37,8.62-3.07,12.58-3.43,7.82-7.63,15.24-10.53,23.16-1.44,4-2.51,8-2,12.2a116.9,116.9,0,0,0,2.11,12.5c3.42,16.49,8.15,33.69,4.12,50.53-.93,4.17-2.24,8.22-3.2,12.34A62.05,62.05,0,0,0,60.92,200c.59,4.15,1.88,8.36,2.42,12.51.72,8.51-1.31,17-4.16,25,2.76-8,4.73-16.49,3.92-24.95-.57-4.11-1.91-8.35-2.53-12.48a62.45,62.45,0,0,1,.28-25.4c.93-4.17,2.2-8.23,3.08-12.36,3.83-16.79-1-33.72-4.5-50.15-1.17-6.24-3.11-12.71-2-19.13a41.26,41.26,0,0,1,1.75-6.22c2.92-8.07,7.09-15.53,10.44-23.28,1.63-3.88,3.21-7.86,2.9-11.95a13,13,0,0,0-5.61-10.16c-2.93-2.08-8.62-1.82-8.47,2.71a5.91,5.91,0,0,0,3,4.52c8.66,5,21-2,29.77-4.71,8-2.88,16.4-5.24,25.06-5.49s17,1.83,25.37,3.61a171.42,171.42,0,0,0,25.09,3.54,164.5,164.5,0,0,0,25.31,0,136.94,136.94,0,0,0,24.77-5.05c26.57-8.28,47.5-13.47,75.55-7.11,12.56,2.71,24.37,7.75,36.29,12.31,7.63,2.78,16.28,5.61,24.11,2.38,3.58-1.47,6.89-4.66,7.16-8.61.13-4.5-4.22-5.88-7.69-3.34C347.13,39.6,346,47,348.76,52.25c2.92,5.65,8.11,9.68,11.16,15.41,4.4,7.62,4.42,16.8,3.43,25.27-2.35,16.81-7.35,33.29-5.59,50.38.92,17,6.95,33.25,8.18,50.26a121.45,121.45,0,0,1-1.28,25.49c-1.78,12.62-5.08,25-5.36,37.8a269.87,269.87,0,0,0,2.56,38.1Z" style="fill:#dbdbdb"></path><path d="M61.57,288.26a268.76,268.76,0,0,0,2.65-38.12c-.25-12.8-3.54-25.22-5.29-37.85a121.26,121.26,0,0,1-1.21-25.47c.59-8.51,2.49-16.85,4.32-25.14,3.8-16.53,5.8-33.66,2.79-50.48C62.94,98.66,59,86.12,60.18,73.27A30,30,0,0,1,64,61.05c2.1-3.77,5.05-6.93,7.72-10.19s4.91-7,5-11.24A12.37,12.37,0,0,0,71.35,29c-3.59-2.61-8.65-1.07-8.3,4,.36,4.18,3.86,7.43,7.6,8.94,8,3.21,16.77.32,24.5-2.51,11.91-4.56,23.72-9.58,36.26-12.25a108.12,108.12,0,0,1,50.74.56c16.49,4,32.27,11,49.25,12.8a143.41,143.41,0,0,0,25.38.17,140.92,140.92,0,0,0,25.08-4c8.23-2.07,16.52-4.77,25.12-4.44s16.94,2.55,24.93,5.4c9,2.81,21.24,9.82,30.24,4.76a6.48,6.48,0,0,0,3.27-4.84c.21-5-5.71-5.57-9.05-3.29a13.27,13.27,0,0,0-5.88,10.46c-.35,4.21,1.26,8.26,2.9,12.13,3.36,7.78,7.56,15.23,10.48,23.26a39.87,39.87,0,0,1,1.76,6.17c1.18,6.36-.75,12.8-1.9,19-3.43,16.46-8.3,33.48-4.42,50.29.89,4.14,2.17,8.2,3.12,12.36a62.66,62.66,0,0,1,.35,25.37c-.61,4.13-1.94,8.36-2.51,12.49-.78,8.48,1.2,17,4,25-2.82-8-4.84-16.49-4.09-25,.56-4.14,1.86-8.37,2.46-12.51a62.4,62.4,0,0,0-.47-25.28c-.95-4.13-2.25-8.19-3.17-12.35-4-16.84.81-34,4.24-50.47a111.54,111.54,0,0,0,2.14-12.53c.53-4.22-.57-8.38-2-12.35-2.92-8-7.11-15.4-10.51-23.21-1.67-3.92-3.31-8.07-3-12.42a13.91,13.91,0,0,1,6.17-11c3.62-2.52,10.36-1.69,10,3.88A7.11,7.11,0,0,1,362.5,43c-9.29,5.27-21.63-1.78-30.82-4.65-8-2.83-16.25-5.13-24.71-5.32s-16.72,2.4-24.91,4.47a152,152,0,0,1-50.77,4c-17-1.8-32.9-8.66-49.37-12.74A107.14,107.14,0,0,0,131.6,28c-12.48,2.63-24.28,7.63-36.17,12.15C87.54,43.07,78.61,46,70.37,42.65c-4-1.62-7.67-5.07-8.06-9.59-.33-5.52,5.15-7.73,9.44-4.67a13.08,13.08,0,0,1,5.59,11.25c0,4.41-2.4,8.37-5.13,11.64s-5.61,6.41-7.67,10.1a29.25,29.25,0,0,0-3.72,11.95c-1.14,12.79,2.73,25.22,4.61,37.78a104.52,104.52,0,0,1,1.14,25.48c-1,17-7,33.31-8.41,50.27a119.91,119.91,0,0,0,1.09,25.39c1.7,12.61,4.94,25.09,5.14,37.88a268.87,268.87,0,0,1-2.82,38.13Z" style="fill:#dbdbdb"></path><path d="M63.2,292.11A268.9,268.9,0,0,0,65.85,254c-.25-12.79-3.54-25.21-5.29-37.84a121.26,121.26,0,0,1-1.21-25.47c.59-8.51,2.5-16.85,4.33-25.14,3.79-16.53,5.79-33.66,2.79-50.48-1.89-12.54-5.8-25.09-4.65-37.93A30,30,0,0,1,65.59,64.9c2.1-3.77,5-6.93,7.72-10.2s4.91-7,5-11.23A12.37,12.37,0,0,0,73,32.84c-3.59-2.61-8.64-1.07-8.3,4,.37,4.18,3.86,7.43,7.61,8.94,8,3.21,16.76.32,24.49-2.51C108.69,38.73,120.5,33.7,133,31a108.25,108.25,0,0,1,50.74.57c16.5,4,32.27,11,49.25,12.8a143.41,143.41,0,0,0,25.38.17,141,141,0,0,0,25.09-4c8.22-2.07,16.51-4.77,25.11-4.44s16.94,2.54,24.94,5.4c9,2.8,21.23,9.82,30.23,4.76a6.48,6.48,0,0,0,3.27-4.84c.22-5-5.71-5.57-9.05-3.3a13.33,13.33,0,0,0-5.88,10.46c-.35,4.21,1.26,8.27,2.9,12.14C358.39,68.52,362.58,76,365.51,84a41,41,0,0,1,1.75,6.17c1.18,6.36-.74,12.8-1.9,19-3.43,16.46-8.3,33.47-4.42,50.28.89,4.15,2.17,8.21,3.12,12.37a62.43,62.43,0,0,1,.35,25.36c-.61,4.14-1.94,8.37-2.51,12.5-.78,8.48,1.2,17,4,25-2.83-8-4.85-16.49-4.1-25,.56-4.14,1.86-8.37,2.46-12.51a62.22,62.22,0,0,0-.46-25.28c-1-4.14-2.26-8.19-3.17-12.35-4-16.84.8-34,4.24-50.47A113.83,113.83,0,0,0,367,96.54c.53-4.22-.57-8.39-2-12.35-2.91-8-7.11-15.4-10.51-23.21-1.66-3.92-3.31-8.07-3-12.42a14,14,0,0,1,6.17-11c3.62-2.51,10.36-1.69,10,3.88a7.12,7.12,0,0,1-3.58,5.36c-9.28,5.27-21.63-1.78-30.82-4.65-8-2.83-16.24-5.13-24.71-5.32s-16.71,2.39-24.91,4.46a151.7,151.7,0,0,1-50.76,4c-17-1.8-32.91-8.66-49.38-12.74a107.14,107.14,0,0,0-50.32-.67C120.75,34.52,109,39.52,97.06,44,89.17,46.91,80.25,49.81,72,46.5c-4-1.63-7.67-5.07-8-9.59-.34-5.53,5.14-7.74,9.43-4.67A13,13,0,0,1,79,43.49c0,4.41-2.39,8.37-5.13,11.64s-5.61,6.41-7.67,10.1a29.24,29.24,0,0,0-3.71,12C61.31,90,65.18,102.4,67.06,115a104.53,104.53,0,0,1,1.15,25.48c-1,17-7,33.31-8.42,50.26a120.64,120.64,0,0,0,1.1,25.4C62.58,228.71,65.82,241.19,66,254a268.87,268.87,0,0,1-2.82,38.13Z" style="fill:#ebebeb"></path><path d="M355.72,87a22.19,22.19,0,0,0-14.51-11.87s1.93,7.46,4.89,9.64S355.72,87,355.72,87Z" style="fill:#dbdbdb"></path><path d="M359.11,223.38a22.15,22.15,0,0,0-14.5-11.86s1.93,7.46,4.88,9.64C352.6,223.45,359.11,223.38,359.11,223.38Z" style="fill:#dbdbdb"></path><path d="M359.8,71.1a23.19,23.19,0,0,1,6.86-17.78s1.92,7.47.41,10.88C365.47,67.79,359.8,71.1,359.8,71.1Z" style="fill:#ebebeb"></path><path d="M365.76,125.35a18.33,18.33,0,0,1,15.7-2.64s-4.46,4.78-7.57,5.14S365.76,125.35,365.76,125.35Z" style="fill:#ebebeb"></path><path d="M359.25,251.08a23.19,23.19,0,0,1,6.86-17.78s1.92,7.47.41,10.88C364.93,247.77,359.25,251.08,359.25,251.08Z" style="fill:#ebebeb"></path><path d="M359.05,152.76a22.68,22.68,0,0,0-11.35-15.11s.15,7.72,2.52,10.57S359.05,152.76,359.05,152.76Z" style="fill:#ebebeb"></path><path d="M365.42,200.46a22.68,22.68,0,0,0-11.34-15.11s.15,7.72,2.52,10.57S365.42,200.46,365.42,200.46Z" style="fill:#ebebeb"></path><path d="M358.81,264.25a12.37,12.37,0,0,0-6.19-8.25s.08,4.22,1.37,5.77S358.81,264.25,358.81,264.25Z" style="fill:#ebebeb"></path><path d="M365.76,122.76a22.76,22.76,0,0,1,10.76-15.56s.14,7.72-2.12,10.66C372,121,365.76,122.76,365.76,122.76Z" style="fill:#dbdbdb"></path><path d="M360.31,164a13.67,13.67,0,0,1,10.23-5s-2.2,4.09-4.25,5S360.31,164,360.31,164Z" style="fill:#dbdbdb"></path><path d="M359.2,260.61a15.77,15.77,0,0,1,9.95-8.84s-1.16,5.35-3.19,7S359.2,260.61,359.2,260.61Z" style="fill:#dbdbdb"></path><path d="M58.37,92.37a22.15,22.15,0,0,0,14.5,11.86S70.94,96.77,68,94.59,58.37,92.37,58.37,92.37Z" style="fill:#dbdbdb"></path><path d="M65.82,259.71A12.69,12.69,0,0,0,71.25,269s.44-4.39-.71-6.14S65.82,259.71,65.82,259.71Z" style="fill:#dbdbdb"></path><path d="M65.77,248.81a23.19,23.19,0,0,1-6.86,17.78s-1.92-7.46-.41-10.88C60.09,252.12,65.77,248.81,65.77,248.81Z" style="fill:#ebebeb"></path><path d="M59.31,190.46a18.34,18.34,0,0,1-13.49,8.46s2.29-6.12,5-7.64S59.31,190.46,59.31,190.46Z" style="fill:#ebebeb"></path><path d="M53.14,83a23.19,23.19,0,0,1-6.86,17.78s-1.92-7.46-.4-10.88C47.47,86.26,53.14,83,53.14,83Z" style="fill:#ebebeb"></path><path d="M67.08,169.43a22.69,22.69,0,0,0,6.74,17.65s2-7.46.49-10.85C72.75,172.66,67.08,169.43,67.08,169.43Z" style="fill:#ebebeb"></path><path d="M53.2,121.6a22.7,22.7,0,0,0,11.34,15.11S64.39,129,62,126.14C59.53,123.14,53.2,121.6,53.2,121.6Z" style="fill:#ebebeb"></path><path d="M70.84,57.8A12.39,12.39,0,0,0,77,66.05s-.08-4.21-1.38-5.77S70.84,57.8,70.84,57.8Z" style="fill:#ebebeb"></path><path d="M67.85,136.42A12.37,12.37,0,0,0,74,144.67s-.08-4.22-1.37-5.78S67.85,136.42,67.85,136.42Z" style="fill:#ebebeb"></path><path d="M62.54,224A12.41,12.41,0,0,0,67,233.31s.77-4.15-.19-5.93S62.54,224,62.54,224Z" style="fill:#ebebeb"></path><path d="M65.62,152.43a13.71,13.71,0,0,1-10.23,5s2.2-4.09,4.25-5S65.62,152.43,65.62,152.43Z" style="fill:#dbdbdb"></path><path d="M60,195A13.73,13.73,0,0,1,55,205.22s-.81-4.58.25-6.54S60,195,60,195Z" style="fill:#dbdbdb"></path><path d="M70.38,63.88a15.8,15.8,0,0,1-9.95,8.85s1.16-5.35,3.19-7S70.38,63.88,70.38,63.88Z" style="fill:#dbdbdb"></path><path d="M194.12,45.53a22.16,22.16,0,0,0-11.33,14.91s7.38-2.19,9.46-5.22C194.42,52,194.12,45.53,194.12,45.53Z" style="fill:#dbdbdb"></path><path d="M314.32,40.87A22.18,22.18,0,0,0,297,48s7.49,1.83,10.81.25C311.3,46.64,314.32,40.87,314.32,40.87Z" style="fill:#dbdbdb"></path><path d="M278.41,37.47a14.61,14.61,0,0,0-2.34,12.15s3.73-3.46,4.07-5.87S278.41,37.47,278.41,37.47Z" style="fill:#dbdbdb"></path><path d="M153.9,38.8a14.61,14.61,0,0,0-8.38,9.1s5-1,6.55-2.85S153.9,38.8,153.9,38.8Z" style="fill:#dbdbdb"></path><path d="M227.42,37.35a18.36,18.36,0,0,1-3.2-15.6s3.23,3.47,3.7,6.56C228.41,31.56,227.42,37.35,227.42,37.35Z" style="fill:#ebebeb"></path><path d="M111.82,24.07a13.65,13.65,0,0,1-9.25-7.38s4.86.1,6.6,1.64S111.82,24.07,111.82,24.07Z" style="fill:#ebebeb"></path><path d="M163.68,25.42a13.63,13.63,0,0,1-10.3-5.82s4.81-.67,6.77.58S163.68,25.42,163.68,25.42Z" style="fill:#ebebeb"></path><path d="M300.25,30.91A23.17,23.17,0,0,1,283.39,22s7.63-1,10.85.86C297.62,24.89,300.25,30.91,300.25,30.91Z" style="fill:#ebebeb"></path><path d="M113.19,48.29a22.7,22.7,0,0,0-14.7,11.88s7.71-.43,10.47-2.9S113.19,48.29,113.19,48.29Z" style="fill:#ebebeb"></path><path d="M136.28,28.31a22.69,22.69,0,0,0-14.69,11.88s7.71-.42,10.47-2.89S136.28,28.31,136.28,28.31Z" style="fill:#ebebeb"></path><path d="M252.69,41.82A22.7,22.7,0,0,0,238,53.7s7.71-.43,10.47-2.9S252.69,41.82,252.69,41.82Z" style="fill:#ebebeb"></path><path d="M339.32,44.41a12.4,12.4,0,0,0-8,6.48s4.21-.23,5.72-1.58S339.32,44.41,339.32,44.41Z" style="fill:#ebebeb"></path><path d="M211.58,47.76a12.37,12.37,0,0,0-8,6.49s4.21-.24,5.72-1.58S211.58,47.76,211.58,47.76Z" style="fill:#ebebeb"></path><path d="M213.88,38.55a22.81,22.81,0,0,1-15.94-10.2s7.72-.42,10.74,1.73S213.88,38.55,213.88,38.55Z" style="fill:#dbdbdb"></path><path d="M109.76,32.17A22.78,22.78,0,0,1,93.82,22s7.72-.42,10.74,1.74C107.73,26,109.76,32.17,109.76,32.17Z" style="fill:#dbdbdb"></path><path d="M249.46,32.85a13.69,13.69,0,0,1-9.27-6.6s4.65,0,6.4,1.36S249.46,32.85,249.46,32.85Z" style="fill:#dbdbdb"></path><path d="M96,44.32a13.69,13.69,0,0,1-9.27-6.6s4.65,0,6.4,1.36S96,44.32,96,44.32Z" style="fill:#dbdbdb"></path><path d="M335.67,44.15a15.79,15.79,0,0,1-9.2-9.63s5.39,1,7.09,2.94S335.67,44.15,335.67,44.15Z" style="fill:#dbdbdb"></path></g><g id="freepik--Door--inject-442"><polygon points="104.14 137.07 134.85 137.07 123.63 452.31 104.14 452.31 104.14 137.07" style="fill:#6482AD"></polygon><polygon points="104.14 137.07 134.85 137.07 123.63 452.31 104.14 452.31 104.14 137.07" style="fill:#fff;opacity:0.5"></polygon><polygon points="375.87 137.07 345.15 137.07 356.37 452.31 375.87 452.31 375.87 137.07" style="fill:#6482AD"></polygon><polygon points="375.87 137.07 345.15 137.07 356.37 452.31 375.87 452.31 375.87 137.07" style="fill:#fff;opacity:0.5"></polygon><path d="M386.09,136.44l-31,8.78c-14.87-50.28-57.31-86.66-107.22-86.66H232.74c-50.63,0-93.58,37.43-107.85,88.85l-31-8.78C111.91,73,167.34,25,232.74,25h15.14C312.56,25,367.47,71.92,386.09,136.44Z" style="fill:#6482AD"></path><path d="M386.09,136.44l-31,8.78c-14.87-50.28-57.31-86.66-107.22-86.66H232.74c-50.63,0-93.58,37.43-107.85,88.85l-31-8.78C111.91,73,167.34,25,232.74,25h15.14C312.56,25,367.47,71.92,386.09,136.44Z" style="fill:#fff;opacity:0.5"></path><path d="M111,132.27l13.87,15.14-31-8.78C109.3,82.52,152,39.34,205,28A199.13,199.13,0,0,1,240,25S133.58,32.36,111,132.27Z" style="opacity:0.1"></path><path d="M371.3,140.64C355,90.83,315.45,50.74,262.12,44.35c-2.48-.37-5.67-.52-8.18-.79-3.09-.31-7.84-.26-10.95-.4-3.12.16-7.85.12-11,.41-42.66,2.73-78.58,25.64-102.79,60.34a170.8,170.8,0,0,0-20.78,38.85A163.37,163.37,0,0,1,128,103.08c19.92-29.8,49-52.17,84.45-59.62,3.08-.82,7.83-1.43,11-2a155.36,155.36,0,0,1,16.72-1.24c1.52-.07,4-.06,5.58,0,3.19.08,8,.26,11.16.65C313.86,45.6,356,87.17,371.3,140.64Z" style="opacity:0.1"></path><path d="M363.61,142.81l-8.5,2.41c-13.28-44.9-48.54-78.71-91.48-85.43C344.31,70.16,363.61,142.81,363.61,142.81Z" style="opacity:0.1"></path><polygon points="269.69 63.04 210.31 63.04 208.31 21.66 273.69 21.66 269.69 63.04" style="fill:#6482AD"></polygon><polygon points="269.69 63.04 210.31 63.04 208.31 21.66 273.69 21.66 269.69 63.04" style="fill:#fff;opacity:0.5"></polygon><polygon points="208.31 21.66 212.99 21.66 218.09 56.78 233.56 57.69 228.96 38.49 242.05 58.07 254.26 38.24 250.69 58.67 270 59.79 269.69 63.04 210.31 63.04 208.31 21.66" style="opacity:0.1"></polygon><path d="M233.46,57.35h13.09A111.36,111.36,0,0,1,357.9,168.71V452.31a0,0,0,0,1,0,0H122.1a0,0,0,0,1,0,0V168.71A111.36,111.36,0,0,1,233.46,57.35Z" style="fill:#6482AD"></path><path d="M233.46,57.35h13.09A111.36,111.36,0,0,1,357.9,168.71V452.31a0,0,0,0,1,0,0H122.1a0,0,0,0,1,0,0V168.71A111.36,111.36,0,0,1,233.46,57.35Z" style="opacity:0.6000000000000001"></path><path d="M357.9,168.71V452.3H327.74V160.44A103.1,103.1,0,0,0,229,57.44c-1.45-.06-2.9-.09-4.37-.09h21.9A111.35,111.35,0,0,1,357.9,168.71Z" style="fill:#6482AD"></path><path d="M357.9,168.71V452.3H327.74V160.44A103.1,103.1,0,0,0,229,57.44c-1.45-.06-2.9-.09-4.37-.09h21.9A111.35,111.35,0,0,1,357.9,168.71Z" style="opacity:0.4"></path></g><g id="freepik--Character--inject-442"><path d="M208.07,388.84,182.8,359.06s17.08-31.62,39-56.43c7.54-8.52,15.82-14.68,18-18.2,1-1.71,6.89-46.14,6.13-51.45a60.68,60.68,0,0,1-6.13-24.28c-.11-4.4,1.68-21.32,1.68-21.32l47.14-.3c1.3,18.75,2.17,93.09-.92,108.31C284.27,312.39,208.07,388.84,208.07,388.84Z" style="fill:#f7a9a0"></path><path d="M287.71,295.39c-1.86,9.21-25.08,35.87-46,58.37l-5.89-64.91a26.53,26.53,0,0,0,4-4.42c1-1.71,6.89-46.14,6.14-51.45a60.59,60.59,0,0,1-6.14-24.28c-.11-4.4,1.68-21.32,1.68-21.32l47.14-.3C289.93,205.83,290.8,280.17,287.71,295.39Z" style="opacity:0.1"></path><path d="M190.82,450.87c-1-.13-8.44-7-16.39-14.53-3.42-3.23-15.07-55.82-14.73-58.73s12.7-4.92,13.68-5.25l20.38-28.76,29.52,26.33-25.21,31.36S193,422.15,193,426.52a41.8,41.8,0,0,0,3.2,14.06C197.58,443.28,193.71,451.22,190.82,450.87Z" style="fill:#f7a9a0"></path><path d="M159.7,377.61c-.34,2.91,11.31,55.51,14.73,58.73,7.95,7.52,15.38,14.4,16.39,14.52,2.89.36,6.77-7.58,5.37-10.28a41.12,41.12,0,0,1-2.91-10.65h0c-.34,6-5.39,15.07-14.06-18.88-5.88-23.05-6.25-34-5.88-38.68C172.11,372.74,160,374.77,159.7,377.61Z" style="fill:#6482AD"></path><path d="M160.12,376.8a49.85,49.85,0,0,0-6.85,8.2c-.94,1.76-2.38,6.31-4.15,8.23s-10,10.88-10,10.88l3.61,3.3,9.75-10.62c2.27-2.48,8.16-7.87,10.85,0Z" style="fill:#6482AD"></path><path d="M293.83,396.79l-36.49-1.36s-19.19-46-11.81-88.5c.29-1.62-13.41-51-10.89-80.67,0,0-2.93-10.53-1-19.31a130.93,130.93,0,0,1,5.81-19.87h49.18c0,13.7-9.17,33.77-9.17,33.77s7.39,82.08,6.65,89.77C285.12,321,293.83,396.79,293.83,396.79Z" style="fill:#f7a9a0"></path><path d="M324.92,451.51c-.83.58-11,.41-21.9.12-4.7-.12-48.47-31.52-50.16-33.91s6.18-12.14,6.69-13l-10-37.32,37.71.67,9.19,40.07s10.93,20.6,13.87,23.83a41.51,41.51,0,0,0,11.76,8.34C324.9,441.35,327.31,449.85,324.92,451.51Z" style="fill:#f7a9a0"></path><path d="M252.87,417.72c1.68,2.39,45.46,33.79,50.16,33.91,10.93.29,21.06.46,21.89-.12,2.39-1.66,0-10.17-2.86-11.24a41,41,0,0,1-9.27-6h0c3.75,4.68,6.05,14.82-23.07-4.68-19.75-13.25-27.35-21.17-30.18-24.89C258.85,405.81,251.22,415.37,252.87,417.72Z" style="fill:#6482AD"></path><path d="M252.63,416.83a51.2,51.2,0,0,0,.37,10.68c.48,1.94,2.44,6.29,2.41,8.9s-.18,14.76-.18,14.76l4.9.06s.13-11.07.17-14.43.83-11.3,8.08-7.23Z" style="fill:#6482AD"></path><path d="M239.45,187.08s-67.13,55.3-98.07,200.67c0,0-24.5,35.16-34.93,64.57H255.23s109.66-85,109.66-119.79c0-1.39-2.56-12.16-2.15-12.73,7-9.93,9.37-14.14,9.15-15.95-5-41.86-26.1-114-29.51-135.25,0,0-.24.53-3.47,7.15-1.08,2.22-3.57,13.65-4.86,16.28-10.31,21-26.5,47.29-27,45.63-10.43-34.17-18.41-50.58-18.41-50.58Z" style="fill:#6482AD"></path><path d="M364.89,332.53c0,34.57-107.95,118.46-109.64,119.77C256.56,450.41,342.81,326.6,364.89,332.53Z" style="opacity:0.1"></path><polygon points="362.74 319.8 346.11 231.72 365.72 315.49 362.74 319.8" style="opacity:0.1"></polygon><path d="M338.91,175.75s-6.6,67.43-9,79.5-5.8,25.57-6.46,23.94,5.06-31.92,6.2-42.76S338.91,175.75,338.91,175.75Z" style="opacity:0.1"></path><polygon points="308.28 265.49 308.9 264.35 309.53 265.49 310.67 266.12 309.53 266.74 308.9 267.88 308.28 266.74 307.14 266.12 308.28 265.49" style="fill:#fff"></polygon><polygon points="252.01 346.4 252.63 345.26 253.26 346.4 254.4 347.02 253.26 347.65 252.63 348.79 252.01 347.65 250.87 347.02 252.01 346.4" style="fill:#fff"></polygon><polygon points="268.1 295.64 268.72 294.5 269.35 295.64 270.49 296.27 269.35 296.89 268.72 298.03 268.1 296.89 266.95 296.27 268.1 295.64" style="fill:#fff"></polygon><polygon points="199.62 275.45 200.25 274.31 200.87 275.45 202.01 276.08 200.87 276.7 200.25 277.85 199.62 276.7 198.48 276.08 199.62 275.45" style="fill:#fff"></polygon><polygon points="238.14 233.52 238.77 232.38 239.39 233.52 240.53 234.15 239.39 234.77 238.77 235.91 238.14 234.77 237 234.15 238.14 233.52" style="fill:#fff"></polygon><polygon points="235.69 261.32 236.31 260.17 236.94 261.32 238.08 261.94 236.94 262.57 236.31 263.71 235.69 262.57 234.54 261.94 235.69 261.32" style="fill:#fff"></polygon><polygon points="251.43 193.39 251.83 192.67 252.22 193.39 252.95 193.79 252.22 194.18 251.83 194.91 251.43 194.18 250.71 193.79 251.43 193.39" style="fill:#fff"></polygon><polygon points="337.49 307.45 337.88 306.72 338.28 307.45 339 307.84 338.28 308.24 337.88 308.96 337.49 308.24 336.77 307.84 337.49 307.45" style="fill:#fff"></polygon><polygon points="218.99 327.87 219.38 327.15 219.78 327.87 220.5 328.27 219.78 328.66 219.38 329.39 218.99 328.66 218.26 328.27 218.99 327.87" style="fill:#fff"></polygon><polygon points="184.08 288.23 184.48 287.5 184.87 288.23 185.59 288.62 184.87 289.02 184.48 289.74 184.08 289.02 183.36 288.62 184.08 288.23" style="fill:#fff"></polygon><polygon points="272.36 264.45 272.76 263.73 273.15 264.45 273.87 264.84 273.15 265.24 272.76 265.96 272.36 265.24 271.64 264.84 272.36 264.45" style="fill:#fff"></polygon><polygon points="242.58 227.71 242.98 226.99 243.37 227.71 244.1 228.11 243.37 228.5 242.98 229.22 242.58 228.5 241.86 228.11 242.58 227.71" style="fill:#fff"></polygon><polygon points="282.17 220.12 282.57 219.4 282.96 220.12 283.69 220.52 282.96 220.91 282.57 221.64 282.17 220.91 281.45 220.52 282.17 220.12" style="fill:#fff"></polygon><polygon points="345.71 215.34 346.11 214.62 346.5 215.34 347.22 215.74 346.5 216.13 346.11 216.86 345.71 216.13 344.99 215.74 345.71 215.34" style="fill:#fff"></polygon><polygon points="290.23 289.35 290.62 288.62 291.02 289.35 291.74 289.74 291.02 290.14 290.62 290.86 290.23 290.14 289.5 289.74 290.23 289.35" style="fill:#fff"></polygon><polygon points="146.5 438.19 146.9 437.46 147.29 438.19 148.02 438.58 147.29 438.98 146.9 439.7 146.5 438.98 145.78 438.58 146.5 438.19" style="fill:#fff"></polygon><polygon points="116.77 438.19 117.17 437.46 117.56 438.19 118.28 438.58 117.56 438.98 117.17 439.7 116.77 438.98 116.05 438.58 116.77 438.19" style="fill:#fff"></polygon><polygon points="139.56 409.56 139.96 408.84 140.35 409.56 141.07 409.95 140.35 410.35 139.96 411.07 139.56 410.35 138.84 409.95 139.56 409.56" style="fill:#fff"></polygon><polygon points="268.32 426.8 268.72 426.08 269.12 426.8 269.84 427.2 269.12 427.59 268.72 428.32 268.32 427.59 267.6 427.2 268.32 426.8" style="fill:#fff"></polygon><polygon points="185.2 326.75 185.59 326.03 185.99 326.75 186.71 327.15 185.99 327.55 185.59 328.27 185.2 327.55 184.48 327.15 185.2 326.75" style="fill:#fff"></polygon><polygon points="209.14 448.34 209.53 447.62 209.93 448.34 210.65 448.74 209.93 449.13 209.53 449.86 209.14 449.13 208.42 448.74 209.14 448.34" style="fill:#fff"></polygon><polygon points="198.08 384.94 198.48 384.22 198.88 384.94 199.6 385.34 198.88 385.73 198.48 386.45 198.08 385.73 197.36 385.34 198.08 384.94" style="fill:#fff"></polygon><polygon points="242.38 417.08 242.77 416.36 243.17 417.08 243.89 417.48 243.17 417.87 242.77 418.6 242.38 417.87 241.65 417.48 242.38 417.08" style="fill:#fff"></polygon><polygon points="306.74 272.53 307.14 271.81 307.53 272.53 308.25 272.93 307.53 273.32 307.14 274.04 306.74 273.32 306.02 272.93 306.74 272.53" style="fill:#fff"></polygon><polygon points="146.92 391.3 147.55 390.15 148.17 391.3 149.31 391.92 148.17 392.55 147.55 393.69 146.92 392.55 145.78 391.92 146.92 391.3" style="fill:#fff"></polygon><polygon points="333.55 342.86 334.17 341.72 334.79 342.86 335.94 343.49 334.79 344.11 334.17 345.26 333.55 344.11 332.4 343.49 333.55 342.86" style="fill:#fff"></polygon><polygon points="179.23 295 179.85 293.86 180.48 295 181.62 295.63 180.48 296.25 179.85 298.68 179.23 296.25 178.09 295.63 179.23 295" style="fill:#fff"></polygon><polygon points="212.33 239.02 212.95 237.88 213.58 239.02 214.72 239.64 213.58 240.27 212.95 242.69 212.33 240.27 211.19 239.64 212.33 239.02" style="fill:#fff"></polygon><polygon points="293.75 212.06 294.37 210.92 295 212.06 296.14 212.69 295 213.31 294.37 215.74 293.75 213.31 292.61 212.69 293.75 212.06" style="fill:#fff"></polygon><polygon points="282.27 380.74 282.9 379.6 283.52 380.74 284.67 381.37 283.52 381.99 282.9 383.14 282.27 381.99 281.13 381.37 282.27 380.74" style="fill:#fff"></polygon><polygon points="210.31 386.48 210.93 385.34 211.56 386.48 212.7 387.1 211.56 387.73 210.93 390.15 210.31 387.73 209.16 387.1 210.31 386.48" style="fill:#fff"></polygon><polygon points="251.21 296.77 251.83 295.63 252.45 296.77 253.6 297.39 252.45 298.02 251.83 300.44 251.21 298.02 250.06 297.39 251.21 296.77" style="fill:#fff"></polygon><polygon points="312.03 368.51 312.65 367.37 313.28 368.51 314.42 369.13 313.28 369.76 312.65 372.18 312.03 369.76 310.89 369.13 312.03 368.51" style="fill:#fff"></polygon><polygon points="168.53 419.74 169.16 418.6 169.78 419.74 170.93 420.36 169.78 420.99 169.16 423.41 168.53 420.99 167.39 420.36 168.53 419.74" style="fill:#fff"></polygon><polygon points="357.06 263.08 357.68 261.94 358.31 263.08 359.45 263.71 358.31 264.33 357.68 266.76 357.06 264.33 355.91 263.71 357.06 263.08" style="fill:#fff"></polygon><polygon points="221.64 207.25 222.27 206.1 222.89 207.25 224.03 207.87 222.89 208.49 222.27 210.92 221.64 208.49 220.5 207.87 221.64 207.25" style="fill:#fff"></polygon><polygon points="331.78 302.58 332.4 301.44 333.03 302.58 334.17 303.2 333.03 303.83 332.4 306.26 331.78 303.83 330.63 303.2 331.78 302.58" style="fill:#fff"></polygon><path d="M255.25,452.3s-16.92-40.74-15.57-95.94c0,0-6.41,49.29,2,96Z" style="opacity:0.1"></path><path d="M149.48,452.32H116.05s19.88-2.92,26.33-6C148.29,443.53,149.48,452.32,149.48,452.32Z" style="opacity:0.1"></path><path d="M200.25,452.32s-8.76-58.73,26.7-206.17c0,0-40.2,121.73-39,206.17Z" style="opacity:0.1"></path><path d="M264.62,187.08s-12.92,50.17-14.56,98c0,0-1.93-51.86,10.69-98Z" style="opacity:0.1"></path><path d="M313.26,229.23s-.9,33.49-2.13,27S307,237.65,307,237.65c.2.64,2.66-2.78,6.21-8.42Z" style="opacity:0.1"></path><path d="M235.85,214.62s-22.9,38.45-35.6,91.64C200.25,306.26,202,255.66,235.85,214.62Z" style="opacity:0.1"></path><path d="M268.12,144.11C274.56,160,286,179.28,291.69,180c7.52.91,23.05-5.77,29.88-10,1.52-1-2.94-21.27-6.43-20.17-9.54,3-18.2,7.58-19.15,7.26-1.32-.46-10.44-9.5-19-18.34C266.69,128,265.37,137.33,268.12,144.11Z" style="fill:#f7a9a0"></path><path d="M318.88,152.76s13.27,7.33,13.79,7.91-.28,1.36-.88,2a7.94,7.94,0,0,1-1.4.74c-2.25,1.07-6.19,3-4.35,5.61,2.42,3.37,11.27-1.07,12.54-2a4.82,4.82,0,0,0,1.17-1.71c1.07-2.26,1.91-6.12.19-8.61-2.36-3.41-6.27-5.74-9.52-8Z" style="fill:#f7a9a0"></path><path d="M318.88,152.76s13.27,7.33,13.79,7.91-.28,1.36-.88,2a7.94,7.94,0,0,1-1.4.74c3.33.7,7,1.45,9.36,1.92,1.07-2.26,1.91-6.12.19-8.61-2.36-3.41-6.27-5.74-9.52-8Z" style="opacity:0.1"></path><path d="M323.44,148s17.48-1.77,21,.3c2.57,1.51,2.81,20.7,2.64,21.69s-2.31,1.68-4.68-1.36-4.65-13.35-4.65-13.35Z" style="fill:#f7a9a0"></path><path d="M323.44,148s17.48-1.77,21,.3c2.57,1.51,2.81,20.7,2.64,21.69s-2.31,1.68-4.68-1.36-4.65-13.35-4.65-13.35Z" style="opacity:0.1"></path><path d="M307.64,166.79c.88.15,3.82,2.58,9.28,4.41,3.73-2.43,11.73-6.41,13.84-7.47,2.15-1.58,5.55-3.09,5.66-2.86.22.44,3.54,7.85,5.34,9.39a4.06,4.06,0,0,0,3.93.83c1.74-.86-2.35-23-5.88-24.05-9.45-2.93-27.91,3.79-27.91,3.79C302,159.73,306.47,166.58,307.64,166.79Z" style="fill:#f7a9a0"></path><path d="M316.92,171.2c1.87.64,3.52,1.22,4.63,1.65a14.1,14.1,0,0,0,10.39.22c3-1,12,2.37,10.16-2.54s-12.28-4.43-12.18-5.82c0-.27.34-.61.84-1C328.65,164.79,320.65,168.77,316.92,171.2Z" style="fill:#f7a9a0"></path><path d="M332.2,162.83c.12,0,.14,0,0,.11-.37.24-2,1.3-1.82,1.71.34.7,5,1.47,7,2.14.11,0,.07.19,0,.15a27.87,27.87,0,0,0-3.06-.66c-1-.2-3.95-.57-4.38-1.46C329.59,164.23,331.75,163,332.2,162.83Z" style="fill:#263238"></path><path d="M239.45,187.08h49.18l-4-18s3.5-9.38,1.38-13.66c-2.45-4.94-9.25-15.37-13.91-20-11.36-11.36-16.84-3.86-19.38-.44-5.63,7.57-7.81,40.59-7.81,40.59Z" style="fill:#f7a9a0"></path><path d="M273.45,156.56s7.05-8.58,10.72-4.47c5.57,6.25.46,17,.46,17l4,18-11.25,6.71-37.93-6.71a50.72,50.72,0,0,1,5.46-11.52,70.34,70.34,0,0,1,1.61-22.38s9.34-.81,13.66-1.09C263.89,151.86,269.41,152.67,273.45,156.56Z" style="fill:#6482AD"></path><g style="opacity:0.5"><path d="M268.36,168.72a43.16,43.16,0,0,1,7.1,0c1.18.12,2.35.3,3.52.5.58.1,1.16.18,1.75.26a6.62,6.62,0,0,0,1.83.05.05.05,0,0,1,0,.1,12.53,12.53,0,0,1-1.72.26,11.83,11.83,0,0,1-1.68,0c-1.2-.11-2.39-.27-3.58-.4-2.41-.24-4.82-.48-7.23-.54C268.26,168.93,268.25,168.73,268.36,168.72Z" style="fill:#fff"></path><path d="M263,172a48.33,48.33,0,0,1,5.69-1.31c1-.16,1.93-.25,2.9-.32l1.4-.07c.51,0,1,0,1.54,0,.06,0,.07.09,0,.09-.48,0-1,.17-1.44.24l-1.44.21c-1,.15-1.92.3-2.88.43-1.93.27-3.85.56-5.76.9A.09.09,0,0,1,263,172Z" style="fill:#fff"></path></g><path d="M273.45,156.56s3.38-7.66,6.22-10.09c2.27-1.93-.13-5.05-.13-5.05s7.33,2.89,10.28,6.37c2.11,2.5,1.66,6.44,1.87,8l-5,4.46Z" style="fill:#6482AD"></path><path d="M284.63,169.11c1.12-3.7,2.4-7.78,1.47-11.62-1.75-4.88-5-9.5-7.82-13.87-.7-1.15-1.43-2.27-2.1-3.44.86,1,1.67,2.11,2.51,3.16,3.24,4.27,6.64,8.76,8.32,13.9.87,4.09-.67,8.25-2.38,11.87Z" style="fill:#fff;opacity:0.5"></path><polygon points="277.63 175.88 278.25 174.74 278.88 175.88 280.02 176.5 278.88 177.13 278.25 178.27 277.63 177.13 276.48 176.5 277.63 175.88" style="fill:#fff"></polygon><polygon points="281.99 149.52 282.61 148.38 283.24 149.52 284.38 150.14 283.24 150.77 282.61 151.91 281.99 150.77 280.84 150.14 281.99 149.52" style="fill:#fff"></polygon><polygon points="257.58 163.33 258.2 162.19 258.83 163.33 259.97 163.96 258.83 164.58 258.2 165.72 257.58 164.58 256.44 163.96 257.58 163.33" style="fill:#fff"></polygon><polygon points="276.09 182.92 276.48 182.19 276.88 182.92 277.6 183.31 276.88 183.71 276.48 184.43 276.09 183.71 275.37 183.31 276.09 182.92" style="fill:#fff"></polygon><path d="M254.91,148.66c-3.43,6.23-18.64,20.1-18.7,22.44,0,.37,7.16,8.86,7.16,8.86-.11,3.73-6.52,27.08-9.87,24.77-4.41-3-23.33-22.29-23.33-32.84,0-10.39,40-41.43,47-41.43C257.18,130.46,257.74,143.5,254.91,148.66Z" style="fill:#f7a9a0"></path><path d="M234.34,182.86a94.92,94.92,0,0,0,9.6-3.09c5.55-2,20.31-3.14,31.08,9.39,4.13,4.8,2.57,9.8-2.61,5.57-3.64-3-5.91-5.35-7.38-6,0,0,1.53,7-1.28,10.12a77.43,77.43,0,0,1-7.93,7.54,16.11,16.11,0,0,1-1.54-1.36s-16.61,4.24-20.78-.31Z" style="fill:#f7a9a0"></path><path d="M249.53,178.76c2.86,1.14,8.89,3.67,13.09,7.45,4.68,4.2,12.55,13.55,9.42,17-2.3,2.51-5.62-.8-5.62-.8s2.44,4.55-.14,6.36c-2.34,1.65-4.76-1.06-4.76-1.06s1,3-1.55,4.17c-3.09,1.39-4.69-5.16-9-6.45C250,205.11,249.53,178.76,249.53,178.76Z" style="fill:#f7a9a0"></path><path d="M257.36,190.41a25.06,25.06,0,0,1,9.09,11.85c0,.12,0,.21-.09.11a61.68,61.68,0,0,0-9-11.92S257.33,190.39,257.36,190.41Z" style="fill:#263238"></path><path d="M253.26,195.25c2,1.53,6.78,6.82,8.36,12.37,0,.12,0,.21-.1.11a66.47,66.47,0,0,0-8.3-12.44S253.23,195.23,253.26,195.25Z" style="fill:#263238"></path><path d="M245.93,158.92l-17.46-9.45s-.53-4.74,2.57-7.76c2.48-2.42,6.24-3.44,11.73-3.44a142.46,142.46,0,0,1,22.55,10.11c3.17,1.75,8.13,8.18,8.13,8.18Z" style="fill:#6482AD"></path><polygon points="256.04 151.28 256.44 150.56 256.83 151.28 257.55 151.68 256.83 152.07 256.44 152.8 256.04 152.07 255.32 151.68 256.04 151.28" style="fill:#fff"></polygon><polygon points="246.27 144.48 246.9 143.34 247.52 144.48 248.66 145.11 247.52 145.73 246.9 148.16 246.27 145.73 245.13 145.11 246.27 144.48" style="fill:#fff"></polygon><path d="M253.34,150.83c-3.37,4.41-8.85,10.3-12.6,14.49a42.16,42.16,0,0,0-4.43,5.46c-.07.18,0,.08-.09,0l.14.17c2.37,3,4.72,6,7,9-2.57-2.8-5.08-5.66-7.56-8.54,0,0-.11-.14-.15-.17a.78.78,0,0,1-.06-.72c1.11-2.27,2.83-4,4.41-5.86,2.12-2.41,4.32-4.74,6.55-7,1.66-1.7,5.08-5.13,6.78-6.8Z" style="fill:#263238"></path><path d="M253.34,152.25a10.87,10.87,0,0,1-3.81,2.8,11,11,0,0,1,3.81-2.8Z" style="fill:#263238"></path><path d="M256.14,118.68c-5.66,2-12-5.18-13.85-11.38s2.42-17.35,6.59-19.16,9.16,1.48,12.49,1.71S269,114.24,256.14,118.68Z" style="fill:#263238"></path><path d="M245.8,92.68s0-.06-.05,0c-3.69,6.06-2,15.07,2.91,20,.12.12.3.11.19,0C242.7,105.39,244,96,245.8,92.68Z" style="fill:#37474f"></path><path d="M260.39,89.83c-3.81,1.64-11.35,8.77-13.19,6.41-1.5-1.93.5-6.47,3.61-7.51,1.57-.53,2.67,0,2.86.39s-.18,1.43-2.16,2.45c-1,.53-2.4,1-2.57.52-.22-.63,1.88-2.08,2.18-2.15,0,0,0-.07,0-.06-.83.12-2.65,1.64-2.5,2.31.21.93,2.28.07,3.17-.39,1.13-.58,2.72-1.81,2.27-2.81a1.84,1.84,0,0,0-1.48-.77c-3.16-.32-5.94,2.66-6.24,5.87-.14,1.49.3,3.47,2.29,3,3.32-.77,8.49-5.56,11.92-7.24C260.67,89.79,260.52,89.77,260.39,89.83Z" style="fill:#37474f"></path><path d="M258.3,130.93c.25,1.08,5.75,8.28,10.68,8,1.6-.08,1.24-6.76,1.24-6.76l2.14-9.74-12.25-7.71S258.19,130.48,258.3,130.93Z" style="fill:#f7a9a0"></path><path d="M272.35,122.45l-2,9.29a19.29,19.29,0,0,1-11-10.69c.4-3.36.76-6.3.76-6.3Z" style="fill:#263238"></path><path d="M283.51,107c3.7,15.92-5.41,19.93-8.85,20.73-3.11.72-13.82,2.77-19.14-12.68s.91-22.2,8-24.22S279.82,91.08,283.51,107Z" style="fill:#f7a9a0"></path><path d="M280.31,105.88c-.39,0-.75,0-1.13-.06a1.76,1.76,0,0,1-1.14-.28.58.58,0,0,1-.11-.7,1.45,1.45,0,0,1,1.35-.55,2.08,2.08,0,0,1,1.43.53A.62.62,0,0,1,280.31,105.88Z" style="fill:#263238"></path><path d="M269.23,107.84c.38-.11.7-.27,1.06-.41a1.76,1.76,0,0,0,1-.62.58.58,0,0,0-.11-.7,1.46,1.46,0,0,0-1.46-.11,2.16,2.16,0,0,0-1.19,1A.62.62,0,0,0,269.23,107.84Z" style="fill:#263238"></path><path d="M272.11,110.56s-.08.07-.07.11c.24,1.09.32,2.38-.6,2.92,0,0,0,.07,0,.06C272.64,113.26,272.51,111.55,272.11,110.56Z" style="fill:#263238"></path><path d="M270.92,109.6c-1.78.19-1.27,3.74.38,3.57S272.42,109.44,270.92,109.6Z" style="fill:#263238"></path><path d="M270.25,109.88c-.28.25-.54.65-.9.74s-.81-.22-1.15-.54c0,0-.06,0-.05,0,.09.68.45,1.35,1.19,1.34s1.07-.67,1.15-1.38C270.5,110,270.36,109.78,270.25,109.88Z" style="fill:#263238"></path><path d="M278.38,109s.09,0,.09.09c.12,1.1.44,2.35,1.48,2.58,0,0,0,.07,0,.07C278.71,111.69,278.31,110,278.38,109Z" style="fill:#263238"></path><path d="M279.2,107.68c1.76-.38,2.38,3.16.75,3.51S277.73,108,279.2,107.68Z" style="fill:#263238"></path><path d="M280,107.78c.32.14.65.43,1,.39s.61-.47.79-.88c0-.05.05,0,.06,0,.14.68,0,1.42-.59,1.67s-1.1-.29-1.38-.93C279.79,107.93,279.86,107.72,280,107.78Z" style="fill:#263238"></path><path d="M274.23,119.33c.29.23.59.57,1,.56a2.85,2.85,0,0,0,1.16-.39,0,0,0,0,1,.05,0,1.49,1.49,0,0,1-1.34.74,1.2,1.2,0,0,1-1-.9C274.11,119.33,274.19,119.3,274.23,119.33Z" style="fill:#263238"></path><path d="M278.21,114.64s.48,1.61.6,2.38c0,.08-.17.14-.43.2,0,0,0,0,0,0a3.72,3.72,0,0,1-3.79-.82.08.08,0,0,1,.1-.12,5.61,5.61,0,0,0,3.51.44c0-.23-.92-2.73-.79-2.76a6.9,6.9,0,0,1,1.82.13c-.91-3.38-2.35-6.58-3.21-10a.11.11,0,0,1,.2-.09,56.09,56.09,0,0,1,3.9,10.58C280.23,115.06,278.54,114.73,278.21,114.64Z" style="fill:#263238"></path><path d="M278.26,116.94a4.51,4.51,0,0,1-1.47,1.75,2,2,0,0,1-1.19.34c-.92,0-1.11-.83-1.1-1.55a4.63,4.63,0,0,1,.16-1.14A5.81,5.81,0,0,0,278.26,116.94Z" style="fill:#263238"></path><path d="M276.79,118.69a2,2,0,0,1-1.19.34c-.92,0-1.11-.83-1.1-1.55A2.09,2.09,0,0,1,276.79,118.69Z" style="fill:#ff9abb"></path><path d="M261.45,115.12a3.51,3.51,0,0,1,.85-3.15c.29-.4-1.32-.83-1.73-.59a3.8,3.8,0,0,0-2,3.83c.48,2.68,4.29,2.61,3.44,5.86-.07.26-.06.23.1,0C264.5,117.63,261.88,116.22,261.45,115.12Z" style="fill:#263238"></path><path d="M258.59,114.8c3.93-1.47,6.37-5.91,5.06-11a16.54,16.54,0,0,0,9.26-1.9,8.92,8.92,0,0,0,4.71-5.68s2.63,1.22,4.51,6.1c0,0,1.6-7.83-.4-13-1.11-2.87-6.37-6.84-11.75-5.34-6.18,1.72-11.47,7.74-13.55,10.2,0,0-6.8,2.26-7.81,6s-1,7.25.17,9.39S254.69,116.26,258.59,114.8Z" style="fill:#263238"></path><path d="M262.58,102.48s-.06,0,0,0c1.09,1.63,2,3.21,1.69,5.24a14.42,14.42,0,0,1-1.59,4.26,3.94,3.94,0,0,0-.57,2.54c.38,1.92,2.6,2,2.25,4.44,0,0,0,0,0,0a3.14,3.14,0,0,0-.82-2.81c-1.3-1.55-1.15-2.58-.28-4.14a16.24,16.24,0,0,0,1-2.19A6.5,6.5,0,0,0,262.58,102.48Z" style="fill:#263238"></path><path d="M280.89,86.38c-2.93-3.26-7.3-3.81-11.24-2.25a0,0,0,0,0,0,0,9.93,9.93,0,0,1,11.42,3.33c2.58,3.66,1.87,8.31,1.28,12.41,0,.15.07.2.12.06C283.77,95.64,284.14,90,280.89,86.38Z" style="fill:#263238"></path><path d="M272.59,88.62a0,0,0,0,0,0,.07c3.89.76,5.13,4.74,4.71,8.24a.07.07,0,0,0,.13,0C278.48,93.33,276.81,88.86,272.59,88.62Z" style="fill:#37474f"></path><path d="M272.71,91.22a.06.06,0,1,0-.07.09c3.46,3,3.59,8.68-.79,10.93-.06,0,0,.12,0,.1a5.89,5.89,0,0,0,3.79-5A7,7,0,0,0,272.71,91.22Z" style="fill:#37474f"></path><path d="M262.13,101.77s0,0,0,0a9,9,0,0,1,1.31,5.55c-.3,1.88-1.4,3.34-2.3,5a3.79,3.79,0,0,0-.56,3.06,2.93,2.93,0,0,0,.76,1.15,3.52,3.52,0,0,1,1.28,3.21s0,0,0,0a3.23,3.23,0,0,0-1-3.19c-1.27-1.44-1-2.67-.12-4.22.38-.64.81-1.25,1.16-1.92C264.22,107.35,263.7,104.66,262.13,101.77Z" style="fill:#37474f"></path><path d="M260.94,116.57a3.1,3.1,0,0,1-1.16-2.71c.2-2.52,1.37-4.49.07-7.46,0,0,0,0,0,0,1.15,2.55-.48,5.86-.37,8,.13,2.5,3.37,3,3.11,5.6,0,0,0,0,0,0a3.08,3.08,0,0,0-.59-2.34A7.14,7.14,0,0,0,260.94,116.57Z" style="fill:#37474f"></path><path d="M252.91,112.74s-1.1-7.39-.61-11.9c.44-4,3-7.09,8.52-11.16,0,0-10.18,2.92-11.55,9.66S252.91,112.74,252.91,112.74Z" style="fill:#6482AD"></path><path d="M259,115.18s-4-4.78-6.19-3.32,1.1,8.61,3.89,9.38a2.76,2.76,0,0,0,3.57-1.79Z" style="fill:#f7a9a0"></path><path d="M253.83,113.89a0,0,0,0,0,0,.07c2,.61,3.11,2.28,4,4.05a1.52,1.52,0,0,0-2.31-.22s0,.11.06.09a1.7,1.7,0,0,1,1.91.44,8.07,8.07,0,0,1,1,1.43c.11.16.41,0,.32-.15v0C258.62,117.14,256.45,113.91,253.83,113.89Z" style="fill:#263238"></path></g><g id="freepik--Balcony--inject-442"><rect x="409.12" y="375.11" width="13.84" height="6.26" rx="2.89" style="fill:#6482AD"></rect><rect x="409.12" y="375.11" width="13.84" height="6.26" rx="2.89" style="fill:#fff;opacity:0.4"></rect><path d="M419.65,381.36H412a2.89,2.89,0,0,1-2.89-2.89V378a2.88,2.88,0,0,1,2.89-2.88h4.91s-3.56,1.21-3.56,3.12S415.75,381.36,419.65,381.36Z" style="opacity:0.1"></path><path d="M433.85,313.91c0,27.2-13.11,41-13.11,41h-9.39s-13.12-13.84-13.12-41c0,0,14.56-4.14,11.92-49.34h11.79C419.29,309.77,433.85,313.91,433.85,313.91Z" style="fill:#6482AD"></path><path d="M433.85,313.91c0,27.2-13.11,41-13.11,41h-9.39s-13.12-13.84-13.12-41c0,0,14.56-4.14,11.92-49.34h11.79C419.29,309.77,433.85,313.91,433.85,313.91Z" style="fill:#fff;opacity:0.4"></path><path d="M414.57,268.71c0,35.56-7.08,45.2-7.08,45.2h17.1s-17.47,2.26-18.41,8.43c-2.5,16.42,9.29,32.61,9.29,32.61h-4.12s-13.12-13.84-13.12-41c0,0,14.55-4.14,11.92-49.3h12l-.25.13Z" style="opacity:0.1"></path><rect x="409.12" y="354.95" width="13.84" height="6.26" rx="2.89" style="fill:#6482AD"></rect><rect x="409.12" y="354.95" width="13.84" height="6.26" rx="2.89" style="fill:#fff;opacity:0.4"></rect><path d="M419.65,361.2H412a2.88,2.88,0,0,1-2.89-2.88v-.48A2.89,2.89,0,0,1,412,355h4.91s-3.56,1.22-3.56,3.13S415.75,361.2,419.65,361.2Z" style="opacity:0.1"></path><rect x="406.83" y="256.25" width="18.42" height="8.33" rx="3.81" style="fill:#6482AD"></rect><rect x="406.83" y="256.25" width="18.42" height="8.33" rx="3.81" style="fill:#fff;opacity:0.4"></rect><path d="M420.85,264.57H410.68a3.84,3.84,0,0,1-3.85-3.84v-.64a3.84,3.84,0,0,1,3.85-3.84h6.53s-4.74,1.61-4.74,4.16S415.66,264.57,420.85,264.57Z" style="opacity:0.1"></path><path d="M419.65,361.21h-7.22a7,7,0,1,0,0,13.9h7.22a7,7,0,1,0,0-13.9Z" style="fill:#6482AD"></path><path d="M419.65,361.21h-7.22a7,7,0,1,0,0,13.9h7.22a7,7,0,1,0,0-13.9Z" style="fill:#fff;opacity:0.4"></path><path d="M420.08,375.11h-7.65a7,7,0,0,1,0-13.91h5.46c-.93.44-5.31,2.68-5.31,6.95,0,4.66,4.46,6.84,7.27,7Z" style="opacity:0.1"></path><path d="M425.91,392.88H406.18A16.71,16.71,0,0,1,412,381.36h8.07A16.71,16.71,0,0,1,425.91,392.88Z" style="fill:#6482AD"></path><path d="M425.91,392.88H406.18A16.71,16.71,0,0,1,412,381.36h8.07A16.71,16.71,0,0,1,425.91,392.88Z" style="fill:#fff;opacity:0.4"></path><path d="M421.66,392.88H406.18A16.71,16.71,0,0,1,412,381.36h6.22s-4.6,2.47-4.6,7.07C413.63,392.21,421.66,392.88,421.66,392.88Z" style="opacity:0.1"></path><rect x="392.53" y="375.11" width="13.84" height="6.26" rx="2.89" style="fill:#6482AD"></rect><rect x="392.53" y="375.11" width="13.84" height="6.26" rx="2.89" style="fill:#fff;opacity:0.5"></rect><path d="M403.06,381.36h-7.65a2.89,2.89,0,0,1-2.89-2.89V378a2.89,2.89,0,0,1,2.89-2.88h4.91s-3.56,1.21-3.56,3.12S399.16,381.36,403.06,381.36Z" style="opacity:0.1"></path><path d="M417.26,313.91c0,27.2-13.12,41-13.12,41h-9.39s-13.11-13.84-13.11-41c0,0,14.55-4.14,11.92-49.34h11.79C402.7,309.77,417.26,313.91,417.26,313.91Z" style="fill:#6482AD"></path><path d="M417.26,313.91c0,27.2-13.12,41-13.12,41h-9.39s-13.11-13.84-13.11-41c0,0,14.55-4.14,11.92-49.34h11.79C402.7,309.77,417.26,313.91,417.26,313.91Z" style="fill:#fff;opacity:0.5"></path><path d="M398,268.71c0,35.56-7.08,45.2-7.08,45.2H408s-17.47,2.26-18.41,8.43c-2.5,16.42,9.3,32.61,9.3,32.61h-4.13s-13.11-13.84-13.11-41c0,0,14.54-4.14,11.92-49.3h12l-.24.13Z" style="opacity:0.1"></path><rect x="392.53" y="354.95" width="13.84" height="6.26" rx="2.89" style="fill:#6482AD"></rect><rect x="392.53" y="354.95" width="13.84" height="6.26" rx="2.89" style="fill:#fff;opacity:0.5"></rect><path d="M403.06,361.2h-7.65a2.89,2.89,0,0,1-2.89-2.88v-.48a2.89,2.89,0,0,1,2.89-2.89h4.91s-3.56,1.22-3.56,3.13S399.16,361.2,403.06,361.2Z" style="opacity:0.1"></path><rect x="390.24" y="256.25" width="18.42" height="8.33" rx="3.81" style="fill:#6482AD"></rect><rect x="390.24" y="256.25" width="18.42" height="8.33" rx="3.81" style="fill:#fff;opacity:0.5"></rect><path d="M404.25,264.57H394.08a3.83,3.83,0,0,1-3.84-3.84v-.64a3.83,3.83,0,0,1,3.84-3.84h6.53s-4.74,1.61-4.74,4.16S399.06,264.57,404.25,264.57Z" style="opacity:0.1"></path><path d="M403.06,361.21h-7.22a7,7,0,1,0,0,13.9h7.22a7,7,0,0,0,0-13.9Z" style="fill:#6482AD"></path><path d="M403.06,361.21h-7.22a7,7,0,1,0,0,13.9h7.22a7,7,0,0,0,0-13.9Z" style="fill:#fff;opacity:0.5"></path><path d="M403.48,375.11h-7.64a7,7,0,0,1,0-13.91h5.46c-.94.44-5.31,2.68-5.31,6.95,0,4.66,4.45,6.84,7.26,7Z" style="opacity:0.1"></path><path d="M409.31,392.88H389.58a16.71,16.71,0,0,1,5.83-11.52h8.07A16.71,16.71,0,0,1,409.31,392.88Z" style="fill:#6482AD"></path><path d="M409.31,392.88H389.58a16.71,16.71,0,0,1,5.83-11.52h8.07A16.71,16.71,0,0,1,409.31,392.88Z" style="fill:#fff;opacity:0.5"></path><path d="M405.06,392.88H389.58a16.71,16.71,0,0,1,5.83-11.52h6.22s-4.6,2.47-4.6,7.07C397,392.21,405.06,392.88,405.06,392.88Z" style="opacity:0.1"></path><rect x="102.8" y="375.11" width="13.84" height="6.26" rx="2.89" style="fill:#6482AD"></rect><rect x="102.8" y="375.11" width="13.84" height="6.26" rx="2.89" style="fill:#fff;opacity:0.5"></rect><path d="M113.32,381.36h-7.64a2.89,2.89,0,0,1-2.89-2.89V378a2.89,2.89,0,0,1,2.89-2.88h4.91s-3.56,1.21-3.56,3.12S109.43,381.36,113.32,381.36Z" style="opacity:0.1"></path><path d="M127.52,313.91c0,27.2-13.11,41-13.11,41H105s-13.11-13.84-13.11-41c0,0,14.55-4.14,11.92-49.34h11.78C113,309.77,127.52,313.91,127.52,313.91Z" style="fill:#6482AD"></path><path d="M127.52,313.91c0,27.2-13.11,41-13.11,41H105s-13.11-13.84-13.11-41c0,0,14.55-4.14,11.92-49.34h11.78C113,309.77,127.52,313.91,127.52,313.91Z" style="fill:#fff;opacity:0.5"></path><path d="M108.24,268.71c0,35.56-7.08,45.2-7.08,45.2h17.1s-17.47,2.26-18.41,8.43c-2.5,16.42,9.29,32.61,9.29,32.61H105s-13.11-13.84-13.11-41c0,0,14.54-4.14,11.92-49.3h12l-.25.13Z" style="opacity:0.1"></path><rect x="102.8" y="354.95" width="13.84" height="6.26" rx="2.89" style="fill:#6482AD"></rect><rect x="102.8" y="354.95" width="13.84" height="6.26" rx="2.89" style="fill:#fff;opacity:0.5"></rect><path d="M113.32,361.2h-7.64a2.89,2.89,0,0,1-2.89-2.88v-.48a2.89,2.89,0,0,1,2.89-2.89h4.91s-3.56,1.22-3.56,3.13S109.43,361.2,113.32,361.2Z" style="opacity:0.1"></path><rect x="100.51" y="256.25" width="18.42" height="8.33" rx="3.81" style="fill:#6482AD"></rect><rect x="100.51" y="256.25" width="18.42" height="8.33" rx="3.81" style="fill:#fff;opacity:0.5"></rect><path d="M114.52,264.57H104.35a3.84,3.84,0,0,1-3.85-3.84v-.64a3.84,3.84,0,0,1,3.85-3.84h6.53s-4.74,1.61-4.74,4.16S109.33,264.57,114.52,264.57Z" style="opacity:0.1"></path><path d="M113.32,361.21H106.1a7,7,0,1,0,0,13.9h7.22a7,7,0,0,0,0-13.9Z" style="fill:#6482AD"></path><path d="M113.32,361.21H106.1a7,7,0,1,0,0,13.9h7.22a7,7,0,0,0,0-13.9Z" style="fill:#fff;opacity:0.5"></path><path d="M113.75,375.11H106.1a7,7,0,0,1,0-13.91h5.47c-.94.44-5.31,2.68-5.31,6.95,0,4.66,4.45,6.84,7.26,7Z" style="opacity:0.1"></path><path d="M119.58,392.88H99.85a16.71,16.71,0,0,1,5.83-11.52h8.07A16.71,16.71,0,0,1,119.58,392.88Z" style="fill:#6482AD"></path><path d="M119.58,392.88H99.85a16.71,16.71,0,0,1,5.83-11.52h8.07A16.71,16.71,0,0,1,119.58,392.88Z" style="fill:#fff;opacity:0.5"></path><path d="M115.33,392.88H99.85a16.71,16.71,0,0,1,5.83-11.52h6.22s-4.6,2.47-4.6,7.07C107.3,392.21,115.33,392.88,115.33,392.88Z" style="opacity:0.1"></path><rect x="145.79" y="375.11" width="13.84" height="6.26" rx="2.89" style="fill:#6482AD"></rect><rect x="145.79" y="375.11" width="13.84" height="6.26" rx="2.89" style="fill:#fff;opacity:0.5"></rect><path d="M156.32,381.36h-7.64a2.89,2.89,0,0,1-2.89-2.89V378a2.88,2.88,0,0,1,2.89-2.88h4.9s-3.56,1.21-3.56,3.12S152.42,381.36,156.32,381.36Z" style="opacity:0.1"></path><path d="M170.52,313.91c0,27.2-13.12,41-13.12,41H148s-13.11-13.84-13.11-41c0,0,14.56-4.14,11.92-49.34h11.79C156,309.77,170.52,313.91,170.52,313.91Z" style="fill:#6482AD"></path><path d="M170.52,313.91c0,27.2-13.12,41-13.12,41H148s-13.11-13.84-13.11-41c0,0,14.56-4.14,11.92-49.34h11.79C156,309.77,170.52,313.91,170.52,313.91Z" style="fill:#fff;opacity:0.5"></path><path d="M151.24,268.71c0,35.56-7.09,45.2-7.09,45.2h17.11s-17.48,2.26-18.41,8.43c-2.5,16.42,9.29,32.61,9.29,32.61H148s-13.11-13.84-13.11-41c0,0,14.55-4.14,11.92-49.3h12l-.25.13Z" style="opacity:0.1"></path><rect x="145.79" y="354.95" width="13.84" height="6.26" rx="2.89" style="fill:#6482AD"></rect><rect x="145.79" y="354.95" width="13.84" height="6.26" rx="2.89" style="fill:#fff;opacity:0.5"></rect><path d="M156.32,361.2h-7.64a2.88,2.88,0,0,1-2.89-2.88v-.48a2.89,2.89,0,0,1,2.89-2.89h4.9s-3.56,1.22-3.56,3.13S152.42,361.2,156.32,361.2Z" style="opacity:0.1"></path><rect x="143.5" y="256.25" width="18.42" height="8.33" rx="3.81" style="fill:#6482AD"></rect><rect x="143.5" y="256.25" width="18.42" height="8.33" rx="3.81" style="fill:#fff;opacity:0.5"></rect><path d="M157.51,264.57H147.34a3.84,3.84,0,0,1-3.84-3.84v-.64a3.84,3.84,0,0,1,3.84-3.84h6.53s-4.74,1.61-4.74,4.16S152.33,264.57,157.51,264.57Z" style="opacity:0.1"></path><path d="M156.32,361.21H149.1a7,7,0,1,0,0,13.9h7.22a7,7,0,0,0,0-13.9Z" style="fill:#6482AD"></path><path d="M156.32,361.21H149.1a7,7,0,1,0,0,13.9h7.22a7,7,0,0,0,0-13.9Z" style="fill:#fff;opacity:0.5"></path><path d="M156.74,375.11H149.1a7,7,0,0,1,0-13.91h5.46c-.93.44-5.31,2.68-5.31,6.95,0,4.66,4.45,6.84,7.26,7Z" style="opacity:0.1"></path><path d="M162.57,392.88H142.85a16.66,16.66,0,0,1,5.83-11.52h8.06A16.71,16.71,0,0,1,162.57,392.88Z" style="fill:#6482AD"></path><path d="M162.57,392.88H142.85a16.66,16.66,0,0,1,5.83-11.52h8.06A16.71,16.71,0,0,1,162.57,392.88Z" style="fill:#fff;opacity:0.5"></path><path d="M158.33,392.88H142.85a16.66,16.66,0,0,1,5.83-11.52h6.22s-4.61,2.47-4.61,7.07C150.29,392.21,158.33,392.88,158.33,392.88Z" style="opacity:0.1"></path><rect x="188.78" y="375.11" width="13.84" height="6.26" rx="2.89" style="fill:#6482AD"></rect><rect x="188.78" y="375.11" width="13.84" height="6.26" rx="2.89" style="fill:#fff;opacity:0.5"></rect><path d="M199.31,381.36h-7.64a2.89,2.89,0,0,1-2.89-2.89V378a2.88,2.88,0,0,1,2.89-2.88h4.91s-3.56,1.21-3.56,3.12S195.41,381.36,199.31,381.36Z" style="opacity:0.1"></path><path d="M213.51,313.91c0,27.2-13.11,41-13.11,41H191s-13.12-13.84-13.12-41c0,0,14.56-4.14,11.92-49.34H201.6C199,309.77,213.51,313.91,213.51,313.91Z" style="fill:#6482AD"></path><path d="M213.51,313.91c0,27.2-13.11,41-13.11,41H191s-13.12-13.84-13.12-41c0,0,14.56-4.14,11.92-49.34H201.6C199,309.77,213.51,313.91,213.51,313.91Z" style="fill:#fff;opacity:0.5"></path><path d="M194.23,268.71c0,35.56-7.08,45.2-7.08,45.2h17.1s-17.47,2.26-18.41,8.43c-2.5,16.42,9.29,32.61,9.29,32.61H191s-13.12-13.84-13.12-41c0,0,14.55-4.14,11.92-49.3h12l-.25.13Z" style="opacity:0.1"></path><rect x="188.78" y="354.95" width="13.84" height="6.26" rx="2.89" style="fill:#6482AD"></rect><rect x="188.78" y="354.95" width="13.84" height="6.26" rx="2.89" style="fill:#fff;opacity:0.5"></rect><path d="M199.31,361.2h-7.64a2.88,2.88,0,0,1-2.89-2.88v-.48a2.89,2.89,0,0,1,2.89-2.89h4.91s-3.56,1.22-3.56,3.13S195.41,361.2,199.31,361.2Z" style="opacity:0.1"></path><rect x="186.49" y="256.25" width="18.42" height="8.33" rx="3.81" style="fill:#6482AD"></rect><rect x="186.49" y="256.25" width="18.42" height="8.33" rx="3.81" style="fill:#fff;opacity:0.5"></rect><path d="M200.51,264.57H190.34a3.84,3.84,0,0,1-3.85-3.84v-.64a3.84,3.84,0,0,1,3.85-3.84h6.53s-4.74,1.61-4.74,4.16S195.32,264.57,200.51,264.57Z" style="opacity:0.1"></path><path d="M199.31,361.21h-7.22a7,7,0,0,0,0,13.9h7.22a7,7,0,0,0,0-13.9Z" style="fill:#6482AD"></path><path d="M199.31,361.21h-7.22a7,7,0,0,0,0,13.9h7.22a7,7,0,0,0,0-13.9Z" style="fill:#fff;opacity:0.5"></path><path d="M199.74,375.11h-7.65a7,7,0,0,1,0-13.91h5.46c-.93.44-5.31,2.68-5.31,6.95,0,4.66,4.46,6.84,7.27,7Z" style="opacity:0.1"></path><path d="M205.56,392.88H185.84a16.71,16.71,0,0,1,5.83-11.52h8.07A16.67,16.67,0,0,1,205.56,392.88Z" style="fill:#6482AD"></path><path d="M205.56,392.88H185.84a16.71,16.71,0,0,1,5.83-11.52h8.07A16.67,16.67,0,0,1,205.56,392.88Z" style="fill:#fff;opacity:0.5"></path><path d="M201.32,392.88H185.84a16.71,16.71,0,0,1,5.83-11.52h6.22s-4.6,2.47-4.6,7.07C193.29,392.21,201.32,392.88,201.32,392.88Z" style="opacity:0.1"></path><rect x="231.78" y="375.11" width="13.84" height="6.26" rx="2.89" style="fill:#6482AD"></rect><rect x="231.78" y="375.11" width="13.84" height="6.26" rx="2.89" style="fill:#fff;opacity:0.5"></rect><path d="M242.31,381.36h-7.65a2.88,2.88,0,0,1-2.88-2.89V378a2.88,2.88,0,0,1,2.88-2.88h4.91s-3.56,1.21-3.56,3.12S238.41,381.36,242.31,381.36Z" style="opacity:0.1"></path><path d="M256.51,313.91c0,27.2-13.12,41-13.12,41H234s-13.11-13.84-13.11-41c0,0,14.55-4.14,11.92-49.34H244.6C242,309.77,256.51,313.91,256.51,313.91Z" style="fill:#6482AD"></path><path d="M256.51,313.91c0,27.2-13.12,41-13.12,41H234s-13.11-13.84-13.11-41c0,0,14.55-4.14,11.92-49.34H244.6C242,309.77,256.51,313.91,256.51,313.91Z" style="fill:#fff;opacity:0.5"></path><path d="M237.22,268.71c0,35.56-7.08,45.2-7.08,45.2h17.1s-17.47,2.26-18.41,8.43c-2.5,16.42,9.3,32.61,9.3,32.61H234s-13.11-13.84-13.11-41c0,0,14.54-4.14,11.92-49.3h12l-.25.13Z" style="opacity:0.1"></path><rect x="231.78" y="354.95" width="13.84" height="6.26" rx="2.89" style="fill:#6482AD"></rect><rect x="231.78" y="354.95" width="13.84" height="6.26" rx="2.89" style="fill:#fff;opacity:0.5"></rect><path d="M242.31,361.2h-7.65a2.88,2.88,0,0,1-2.88-2.88v-.48a2.88,2.88,0,0,1,2.88-2.89h4.91s-3.56,1.22-3.56,3.13S238.41,361.2,242.31,361.2Z" style="opacity:0.1"></path><rect x="229.49" y="256.25" width="18.42" height="8.33" rx="3.81" style="fill:#6482AD"></rect><rect x="229.49" y="256.25" width="18.42" height="8.33" rx="3.81" style="fill:#fff;opacity:0.5"></rect><path d="M243.5,264.57H233.33a3.83,3.83,0,0,1-3.84-3.84v-.64a3.83,3.83,0,0,1,3.84-3.84h6.53s-4.74,1.61-4.74,4.16S238.31,264.57,243.5,264.57Z" style="opacity:0.1"></path><path d="M242.31,361.21h-7.22a7,7,0,1,0,0,13.9h7.22a7,7,0,0,0,0-13.9Z" style="fill:#6482AD"></path><path d="M242.31,361.21h-7.22a7,7,0,1,0,0,13.9h7.22a7,7,0,0,0,0-13.9Z" style="fill:#fff;opacity:0.5"></path><path d="M242.73,375.11h-7.64a7,7,0,0,1,0-13.91h5.46c-.94.44-5.31,2.68-5.31,6.95,0,4.66,4.45,6.84,7.26,7Z" style="opacity:0.1"></path><path d="M248.56,392.88H228.83a16.71,16.71,0,0,1,5.83-11.52h8.07A16.71,16.71,0,0,1,248.56,392.88Z" style="fill:#6482AD"></path><path d="M248.56,392.88H228.83a16.71,16.71,0,0,1,5.83-11.52h8.07A16.71,16.71,0,0,1,248.56,392.88Z" style="fill:#fff;opacity:0.5"></path><path d="M244.31,392.88H228.83a16.71,16.71,0,0,1,5.83-11.52h6.22s-4.6,2.47-4.6,7.07C236.28,392.21,244.31,392.88,244.31,392.88Z" style="opacity:0.1"></path><rect x="274.77" y="375.11" width="13.84" height="6.26" rx="2.89" style="fill:#6482AD"></rect><rect x="274.77" y="375.11" width="13.84" height="6.26" rx="2.89" style="fill:#fff;opacity:0.5"></rect><path d="M285.3,381.36h-7.64a2.89,2.89,0,0,1-2.89-2.89V378a2.88,2.88,0,0,1,2.89-2.88h4.9s-3.56,1.21-3.56,3.12S281.4,381.36,285.3,381.36Z" style="opacity:0.1"></path><path d="M299.5,313.91c0,27.2-13.11,41-13.11,41H277s-13.11-13.84-13.11-41c0,0,14.56-4.14,11.92-49.34h11.79C284.94,309.77,299.5,313.91,299.5,313.91Z" style="fill:#6482AD"></path><path d="M299.5,313.91c0,27.2-13.11,41-13.11,41H277s-13.11-13.84-13.11-41c0,0,14.56-4.14,11.92-49.34h11.79C284.94,309.77,299.5,313.91,299.5,313.91Z" style="fill:#fff;opacity:0.5"></path><path d="M280.22,268.71c0,35.56-7.09,45.2-7.09,45.2h17.11s-17.47,2.26-18.41,8.43c-2.5,16.42,9.29,32.61,9.29,32.61H277s-13.11-13.84-13.11-41c0,0,14.55-4.14,11.92-49.3h12l-.25.13Z" style="opacity:0.1"></path><rect x="274.77" y="354.95" width="13.84" height="6.26" rx="2.89" style="fill:#6482AD"></rect><rect x="274.77" y="354.95" width="13.84" height="6.26" rx="2.89" style="fill:#fff;opacity:0.5"></rect><path d="M285.3,361.2h-7.64a2.88,2.88,0,0,1-2.89-2.88v-.48a2.89,2.89,0,0,1,2.89-2.89h4.9s-3.56,1.22-3.56,3.13S281.4,361.2,285.3,361.2Z" style="opacity:0.1"></path><rect x="272.48" y="256.25" width="18.42" height="8.33" rx="3.81" style="fill:#6482AD"></rect><rect x="272.48" y="256.25" width="18.42" height="8.33" rx="3.81" style="fill:#fff;opacity:0.5"></rect><path d="M286.49,264.57H276.32a3.84,3.84,0,0,1-3.84-3.84v-.64a3.84,3.84,0,0,1,3.84-3.84h6.53s-4.74,1.61-4.74,4.16S281.31,264.57,286.49,264.57Z" style="opacity:0.1"></path><path d="M285.3,361.21h-7.22a6.95,6.95,0,0,0,0,13.9h7.22a7,7,0,0,0,0-13.9Z" style="fill:#6482AD"></path><path d="M285.3,361.21h-7.22a6.95,6.95,0,0,0,0,13.9h7.22a7,7,0,0,0,0-13.9Z" style="fill:#fff;opacity:0.5"></path><path d="M285.72,375.11h-7.64a7,7,0,0,1,0-13.91h5.46c-.93.44-5.31,2.68-5.31,6.95,0,4.66,4.45,6.84,7.26,7Z" style="opacity:0.1"></path><path d="M291.55,392.88H271.83a16.66,16.66,0,0,1,5.83-11.52h8.06A16.66,16.66,0,0,1,291.55,392.88Z" style="fill:#6482AD"></path><path d="M291.55,392.88H271.83a16.66,16.66,0,0,1,5.83-11.52h8.06A16.66,16.66,0,0,1,291.55,392.88Z" style="fill:#fff;opacity:0.5"></path><path d="M287.31,392.88H271.83a16.66,16.66,0,0,1,5.83-11.52h6.22s-4.61,2.47-4.61,7.07C279.27,392.21,287.31,392.88,287.31,392.88Z" style="opacity:0.1"></path><rect x="317.76" y="375.11" width="13.84" height="6.26" rx="2.89" style="fill:#6482AD"></rect><rect x="317.76" y="375.11" width="13.84" height="6.26" rx="2.89" style="fill:#fff;opacity:0.5"></rect><path d="M328.29,381.36h-7.64a2.89,2.89,0,0,1-2.89-2.89V378a2.88,2.88,0,0,1,2.89-2.88h4.91s-3.56,1.21-3.56,3.12S324.4,381.36,328.29,381.36Z" style="opacity:0.1"></path><path d="M342.49,313.91c0,27.2-13.11,41-13.11,41H320s-13.12-13.84-13.12-41c0,0,14.56-4.14,11.92-49.34h11.79C327.93,309.77,342.49,313.91,342.49,313.91Z" style="fill:#6482AD"></path><path d="M342.49,313.91c0,27.2-13.11,41-13.11,41H320s-13.12-13.84-13.12-41c0,0,14.56-4.14,11.92-49.34h11.79C327.93,309.77,342.49,313.91,342.49,313.91Z" style="fill:#fff;opacity:0.5"></path><path d="M323.21,268.71c0,35.56-7.08,45.2-7.08,45.2h17.1s-17.47,2.26-18.41,8.43c-2.5,16.42,9.29,32.61,9.29,32.61H320s-13.12-13.84-13.12-41c0,0,14.55-4.14,11.92-49.3h12l-.25.13Z" style="opacity:0.1"></path><rect x="317.76" y="354.95" width="13.84" height="6.26" rx="2.89" style="fill:#6482AD"></rect><rect x="317.76" y="354.95" width="13.84" height="6.26" rx="2.89" style="fill:#fff;opacity:0.5"></rect><path d="M328.29,361.2h-7.64a2.88,2.88,0,0,1-2.89-2.88v-.48a2.89,2.89,0,0,1,2.89-2.89h4.91s-3.56,1.22-3.56,3.13S324.4,361.2,328.29,361.2Z" style="opacity:0.1"></path><rect x="315.48" y="256.25" width="18.42" height="8.33" rx="3.81" style="fill:#6482AD"></rect><rect x="315.48" y="256.25" width="18.42" height="8.33" rx="3.81" style="fill:#fff;opacity:0.5"></rect><path d="M329.49,264.57H319.32a3.84,3.84,0,0,1-3.85-3.84v-.64a3.84,3.84,0,0,1,3.85-3.84h6.53s-4.74,1.61-4.74,4.16S324.3,264.57,329.49,264.57Z" style="opacity:0.1"></path><path d="M328.29,361.21h-7.22a7,7,0,1,0,0,13.9h7.22a7,7,0,0,0,0-13.9Z" style="fill:#6482AD"></path><path d="M328.29,361.21h-7.22a7,7,0,1,0,0,13.9h7.22a7,7,0,0,0,0-13.9Z" style="fill:#fff;opacity:0.5"></path><path d="M328.72,375.11h-7.65a7,7,0,0,1,0-13.91h5.46c-.93.44-5.3,2.68-5.3,6.95,0,4.66,4.45,6.84,7.26,7Z" style="opacity:0.1"></path><path d="M334.55,392.88H314.82a16.71,16.71,0,0,1,5.83-11.52h8.07A16.71,16.71,0,0,1,334.55,392.88Z" style="fill:#6482AD"></path><path d="M334.55,392.88H314.82a16.71,16.71,0,0,1,5.83-11.52h8.07A16.71,16.71,0,0,1,334.55,392.88Z" style="fill:#fff;opacity:0.5"></path><path d="M330.3,392.88H314.82a16.71,16.71,0,0,1,5.83-11.52h6.22s-4.6,2.47-4.6,7.07C322.27,392.21,330.3,392.88,330.3,392.88Z" style="opacity:0.1"></path><rect x="360.76" y="375.11" width="13.84" height="6.26" rx="2.89" style="fill:#6482AD"></rect><rect x="360.76" y="375.11" width="13.84" height="6.26" rx="2.89" style="fill:#fff;opacity:0.5"></rect><path d="M371.29,381.36h-7.65a2.88,2.88,0,0,1-2.88-2.89V378a2.88,2.88,0,0,1,2.88-2.88h4.91s-3.56,1.21-3.56,3.12S367.39,381.36,371.29,381.36Z" style="opacity:0.1"></path><path d="M385.49,313.91c0,27.2-13.12,41-13.12,41H363s-13.11-13.84-13.11-41c0,0,14.56-4.14,11.92-49.34h11.79C370.93,309.77,385.49,313.91,385.49,313.91Z" style="fill:#6482AD"></path><path d="M385.49,313.91c0,27.2-13.12,41-13.12,41H363s-13.11-13.84-13.11-41c0,0,14.56-4.14,11.92-49.34h11.79C370.93,309.77,385.49,313.91,385.49,313.91Z" style="fill:#fff;opacity:0.5"></path><path d="M366.21,268.71c0,35.56-7.09,45.2-7.09,45.2h17.1s-17.47,2.26-18.41,8.43c-2.5,16.42,9.3,32.61,9.3,32.61H363s-13.11-13.84-13.11-41c0,0,14.55-4.14,11.92-49.3h12l-.25.13Z" style="opacity:0.1"></path><rect x="360.76" y="354.95" width="13.84" height="6.26" rx="2.89" style="fill:#6482AD"></rect><rect x="360.76" y="354.95" width="13.84" height="6.26" rx="2.89" style="fill:#fff;opacity:0.5"></rect><path d="M371.29,361.2h-7.65a2.88,2.88,0,0,1-2.88-2.88v-.48a2.88,2.88,0,0,1,2.88-2.89h4.91s-3.56,1.22-3.56,3.13S367.39,361.2,371.29,361.2Z" style="opacity:0.1"></path><rect x="358.47" y="256.25" width="18.42" height="8.33" rx="3.81" style="fill:#6482AD"></rect><rect x="358.47" y="256.25" width="18.42" height="8.33" rx="3.81" style="fill:#fff;opacity:0.5"></rect><path d="M372.48,264.57H362.31a3.84,3.84,0,0,1-3.84-3.84v-.64a3.84,3.84,0,0,1,3.84-3.84h6.53s-4.74,1.61-4.74,4.16S367.29,264.57,372.48,264.57Z" style="opacity:0.1"></path><path d="M371.29,361.21h-7.22a7,7,0,0,0,0,13.9h7.22a7,7,0,0,0,0-13.9Z" style="fill:#6482AD"></path><path d="M371.29,361.21h-7.22a7,7,0,0,0,0,13.9h7.22a7,7,0,0,0,0-13.9Z" style="fill:#fff;opacity:0.5"></path><path d="M371.71,375.11h-7.64a7,7,0,0,1,0-13.91h5.46c-.94.44-5.31,2.68-5.31,6.95,0,4.66,4.45,6.84,7.26,7Z" style="opacity:0.1"></path><path d="M377.54,392.88H357.81a16.71,16.71,0,0,1,5.83-11.52h8.07A16.71,16.71,0,0,1,377.54,392.88Z" style="fill:#6482AD"></path><path d="M377.54,392.88H357.81a16.71,16.71,0,0,1,5.83-11.52h8.07A16.71,16.71,0,0,1,377.54,392.88Z" style="fill:#fff;opacity:0.5"></path><path d="M373.3,392.88H357.81a16.71,16.71,0,0,1,5.83-11.52h6.22s-4.6,2.47-4.6,7.07C365.26,392.21,373.3,392.88,373.3,392.88Z" style="opacity:0.1"></path><rect x="91.91" y="240.28" width="341.95" height="15.77" style="fill:#6482AD"></rect><rect x="91.91" y="240.28" width="341.95" height="15.77" style="fill:#fff;opacity:0.5"></rect><rect x="91.91" y="240.28" width="121.25" height="15.77" style="opacity:0.1"></rect><rect x="91.91" y="393.08" width="341.95" height="15.77" style="fill:#6482AD"></rect><rect x="91.91" y="393.08" width="341.95" height="15.77" style="fill:#fff;opacity:0.5"></rect><rect x="91.91" y="403.99" width="341.95" height="4.86" style="opacity:0.1"></rect><path d="M99.86,408.85H427.93a0,0,0,0,1,0,0v12.38A54.74,54.74,0,0,1,373.19,476H99.86a0,0,0,0,1,0,0V408.85A0,0,0,0,1,99.86,408.85Z" style="fill:#6482AD"></path><path d="M99.86,408.85H427.93a0,0,0,0,1,0,0v12.38A54.74,54.74,0,0,1,373.19,476H99.86a0,0,0,0,1,0,0V408.85A0,0,0,0,1,99.86,408.85Z" style="fill:#fff;opacity:0.5"></path><path d="M225.34,408.85c0,18.54-6.28,35.31-16.41,47.46S184.78,476,169.31,476H99.85V408.85Z" style="opacity:0.1"></path><g style="opacity:0.1"><path d="M344,452.54a23.22,23.22,0,0,0,3.9,4.14,26.6,26.6,0,0,0,4.7,3.22,21.86,21.86,0,0,0,11.24,2.74,19.27,19.27,0,0,0,6-1.19,23.11,23.11,0,0,0,5.49-2.95,24.35,24.35,0,0,0,2.41-2c.37-.36.78-.7,1.13-1.09l1.06-1.14c.38-.4.64-.73.94-1.08l.88-1,1.77-2.06c1.16-1.39,2.33-2.74,3.51-4.08s2.33-2.66,3.51-3.94a52.28,52.28,0,0,1,7.29-6.8c2.55-1.82,5.21-3.07,8.21-3a14,14,0,0,1,4.64,1,34.18,34.18,0,0,1,4.74,2.35,20.64,20.64,0,0,0-3.6-4.52,14.92,14.92,0,0,0-5-3.16c-.48-.2-1-.29-1.47-.44s-1-.19-1.52-.27a14.51,14.51,0,0,0-3.09,0,9.62,9.62,0,0,0-1.52.24l-.75.17-.73.22a13.54,13.54,0,0,0-1.44.49c-.48.17-.93.39-1.39.6-.9.43-1.78.9-2.62,1.41-.43.25-.83.53-1.24.8s-.81.55-1.2.84a48,48,0,0,0-4.45,3.68c-1.4,1.29-2.73,2.64-4,4s-2.53,2.79-3.75,4.2l-3.51,4.26a27.1,27.1,0,0,1-3.21,3.37,21.77,21.77,0,0,1-3.64,2.53l-1,.49c-.34.13-.68.26-1,.41a16.49,16.49,0,0,1-2.1.65,22.47,22.47,0,0,1-9.29.09A42.52,42.52,0,0,1,344,452.54Z"></path><path d="M344.21,452.8A16,16,0,0,0,347.5,454a21.91,21.91,0,0,0,3.42.63,21.15,21.15,0,0,0,7.14-.44,16.71,16.71,0,0,0,7.1-3.65,14.94,14.94,0,0,0,2.92-3.5,16.5,16.5,0,0,0,1.87-4.36,19.89,19.89,0,0,0,.67-4.59,18,18,0,0,0-.45-4.69,15.22,15.22,0,0,0-1.79-4.46,13.87,13.87,0,0,0-2.93-3.43,14.46,14.46,0,0,0-7.06-3.18,15.89,15.89,0,0,0-3.57-.17,12.19,12.19,0,0,0-3.47.67,58,58,0,0,1,5.57,3.78,18.16,18.16,0,0,1,4,4.18,9.92,9.92,0,0,1,1.59,4.41,14.32,14.32,0,0,1,0,2.46,15.48,15.48,0,0,1-.38,2.49,10.25,10.25,0,0,1-2.07,4.11,16.15,16.15,0,0,1-4.12,3.42,39.23,39.23,0,0,1-5.51,2.71C348.48,451.25,346.41,452,344.21,452.8Z"></path></g><g style="opacity:0.1"><path d="M331.25,452.54a24.56,24.56,0,0,1-4.32,4.14,30,30,0,0,1-5.2,3.22,26.27,26.27,0,0,1-12.44,2.74,23.18,23.18,0,0,1-6.62-1.19,26.46,26.46,0,0,1-8.75-4.95c-.41-.36-.86-.7-1.25-1.09l-1.17-1.14c-.42-.4-.71-.73-1-1.08l-1-1-2-2.06c-1.28-1.39-2.57-2.74-3.87-4.08s-2.59-2.66-3.89-3.94a56,56,0,0,0-8.07-6.8,15.71,15.71,0,0,0-9.08-3,16.92,16.92,0,0,0-5.14,1,40.06,40.06,0,0,0-5.24,2.35,20.79,20.79,0,0,1,4-4.52,16.74,16.74,0,0,1,5.55-3.16c.52-.2,1.08-.29,1.62-.44s1.12-.19,1.69-.27a17.66,17.66,0,0,1,3.41,0,11.86,11.86,0,0,1,1.69.24l.83.17.81.22c.54.13,1.07.31,1.59.49s1,.39,1.53.6c1,.43,2,.9,2.9,1.41.48.25.93.53,1.37.8s.9.55,1.33.84a52.2,52.2,0,0,1,4.93,3.68c1.55,1.29,3,2.64,4.46,4s2.8,2.79,4.14,4.2l3.89,4.26a28.85,28.85,0,0,0,3.55,3.37,25,25,0,0,0,4,2.53l1.09.49c.37.13.75.26,1.12.41a20,20,0,0,0,2.33.65,27.46,27.46,0,0,0,10.28.09A50.78,50.78,0,0,0,331.25,452.54Z"></path><path d="M331,452.8a19,19,0,0,1-3.63,1.24,26.9,26.9,0,0,1-3.8.63,25.84,25.84,0,0,1-7.9-.44,19.33,19.33,0,0,1-7.85-3.65,15.94,15.94,0,0,1-3.24-3.5,16.45,16.45,0,0,1-2.07-4.36,18.06,18.06,0,0,1-.73-4.59,16.83,16.83,0,0,1,.49-4.69,14.66,14.66,0,0,1,2-4.46,14.35,14.35,0,0,1,3.24-3.43,16.85,16.85,0,0,1,7.81-3.18,19.46,19.46,0,0,1,3.95-.17,14.81,14.81,0,0,1,3.84.67,65.06,65.06,0,0,0-6.16,3.78,19,19,0,0,0-4.43,4.18,9.23,9.23,0,0,0-1.75,4.41,12.52,12.52,0,0,0,0,2.46,12.68,12.68,0,0,0,.42,2.49,9.89,9.89,0,0,0,2.29,4.11,17.53,17.53,0,0,0,4.56,3.42,45.6,45.6,0,0,0,6.09,2.71C326.28,451.25,328.57,452,331,452.8Z"></path></g></g></svg>
